<svg width="723" height="488" viewBox="0 0 723 488" fill="none" xmlns="http://www.w3.org/2000/svg">
<g clip-path="url(#clip0_2_194)">
<path d="M509.016 462.166C509.016 462.166 187.272 525.36 125.061 375.116C62.8504 224.871 -7.53073 275.612 0.654891 188.874C8.84052 102.136 118.68 53.0471 220.921 39.9545C323.161 26.862 563.765 -23.5898 591.208 60.2708C624.278 161.342 727.653 175.066 722.848 262.573C713.52 432.205 509.016 462.166 509.016 462.166Z" fill="#C4D8EB"/>
</g>
<g clip-path="url(#clip1_2_194)">
<path d="M123.821 100.273L109.692 114.215L122.874 127.224L137.003 113.281L123.821 100.273Z" fill="#469EE3"/>
<path d="M139.427 116.785L125.298 130.727L138.48 143.736L152.609 129.794L139.427 116.785Z" fill="#469EE3"/>
<path d="M142.77 83.7712L128.641 97.7134L141.823 110.722L155.952 96.7798L142.77 83.7712Z" fill="#469EE3"/>
<path d="M588.789 321.438L574.66 335.38L587.842 348.388L601.971 334.446L588.789 321.438Z" fill="#4854B6"/>
<path d="M400.033 58H264V127.319H400.033V58Z" fill="#A6D3F6"/>
<path d="M202.045 296.67H150.753V408.9H202.045V296.67Z" fill="#5CA6E0"/>
<path d="M175.284 306.572C175.284 306.572 130.683 235.053 128.453 216.348C126.223 197.643 123.993 191.041 123.993 191.041C123.993 191.041 137.373 188.841 141.833 198.743C146.293 208.646 159.674 196.543 164.134 222.95C164.134 222.95 165.249 236.153 175.284 231.752C185.319 227.351 175.284 306.572 175.284 306.572Z" fill="#3FBE83"/>
<path d="M180.859 317.575C180.859 317.575 149.014 259.26 138.488 236.153C130.683 219.011 123.993 191.041 123.993 191.041C123.993 191.041 110.546 195.905 111.727 206.445C112.843 216.348 102.807 219.649 105.037 231.752C107.446 244.846 126.624 247.299 115.073 259.26C108.059 266.511 113.322 278.889 118.418 286.767C121.685 291.806 137.797 296.395 134.028 294.469C125.398 290.068 180.859 317.575 180.859 317.575Z" fill="#3FBE83"/>
<path d="M160.657 268.675C161.776 268.166 157.255 256.12 150.56 241.768C143.864 227.416 137.529 216.194 136.411 216.702C135.292 217.211 139.813 229.257 146.508 243.609C153.204 257.96 159.539 269.183 160.657 268.675Z" fill="white"/>
<path d="M190.437 353.324C190.437 353.324 122.532 302.71 113.567 286.085C104.603 269.459 100.087 264.079 100.087 264.079C100.087 264.079 111.739 257.224 119.544 264.849C127.349 272.474 135.355 256.399 149.237 279.395C149.237 279.395 150.765 295.536 160.8 292.235C171.203 288.846 190.437 353.324 190.437 353.324Z" fill="#62E3A7"/>
<path d="M199.681 361.587C199.681 361.587 148.523 318.675 130.203 300.928C116.611 287.724 100.098 264.101 100.098 264.101C100.098 264.101 89.3599 273.464 94.344 282.806C99.0271 291.608 90.8986 298.309 97.4438 308.784C104.513 320.117 123.29 315.518 116.934 330.79C113.076 340.065 122.51 349.704 130.192 355.216C135.087 358.737 151.79 357.23 147.575 356.79C137.875 355.854 199.681 361.587 199.681 361.587Z" fill="#62E3A7"/>
<path d="M156.117 336.599C156.972 335.724 148.322 326.124 136.797 315.157C125.272 304.189 115.236 296.008 114.381 296.882C113.526 297.757 122.176 307.357 133.701 318.325C145.226 329.292 155.262 337.474 156.117 336.599Z" fill="#E1E6FB"/>
<path d="M544.358 218.648C544.358 218.648 597.366 133.595 600.767 110.94C604.167 88.2847 606.977 80.3406 606.977 80.3406C606.977 80.3406 592.259 77.0397 586.818 88.9229C581.376 100.806 567.16 85.4569 560.893 117.388C560.893 117.388 558.998 133.408 548.093 127.609C537.188 121.811 544.358 218.648 544.358 218.648Z" fill="#369775"/>
<path d="M537.667 231.752C537.667 231.752 575.879 162.203 588.691 134.552C598.202 114.032 607.011 80.2966 607.011 80.2966C607.011 80.2966 621.673 86.8214 619.833 99.5848C618.105 111.589 629.055 116.089 625.977 130.679C622.632 146.501 601.268 148.636 613.478 163.688C620.882 172.831 614.437 187.652 608.393 197.016C604.524 203.002 586.438 207.865 590.709 205.697C600.466 200.779 537.667 231.752 537.667 231.752Z" fill="#369775"/>
<path d="M575.01 140.967C566.87 158.131 561.261 172.589 562.477 173.261C563.692 173.932 571.274 160.552 579.414 143.388C587.553 126.223 593.162 111.765 591.947 111.094C590.731 110.423 583.138 123.791 575.01 140.967Z" fill="white"/>
<path d="M525.224 274.862C525.224 274.862 603.008 216.282 613.779 196.455C624.55 176.627 629.813 170.312 629.813 170.312C629.813 170.312 617.247 161.509 608.215 170.389C599.183 179.268 591.122 159.386 574.586 186.772C574.586 186.772 572.088 206.346 561.127 201.879C549.765 197.247 525.224 274.862 525.224 274.862Z" fill="#50AA8A"/>
<path d="M514.564 284.489C514.564 284.489 573.404 234.558 594.589 213.784C610.311 198.38 629.813 170.312 629.813 170.312C629.813 170.312 641.242 182.184 635.243 193.418C629.601 203.948 638.287 212.431 630.516 224.886C622.108 238.354 601.525 231.939 607.825 250.82C611.638 262.274 600.666 273.596 591.913 279.956C586.338 284.027 567.885 281.442 572.579 281.056C583.383 280.275 514.564 284.489 514.564 284.489Z" fill="#50AA8A"/>
<path d="M592.727 226.427C579.971 239.806 570.427 251.525 571.363 252.592C572.3 253.659 583.417 243.668 596.173 230.278C608.929 216.887 618.473 205.18 617.537 204.113C616.6 203.046 605.483 213.047 592.727 226.427Z" fill="white"/>
<path d="M296.822 296.67H210.965V408.9H296.822V296.67Z" fill="#1B7BD1"/>
<path d="M484.146 297.77H398.289V410H484.146V297.77Z" fill="#E1E6FB"/>
<path d="M550.751 58H495V128.419H550.751V58Z" fill="#C9DAEC"/>
<path d="M561.083 95.3156H171.939V378.091H561.083V95.3156Z" fill="#BAC5F4"/>
<path d="M561.083 95.3156H181.974V378.091H561.083V95.3156Z" fill="#F8F8FF"/>
<path d="M556.623 99.7168H185.319V119.522H556.623V99.7168Z" fill="white"/>
<path d="M556.623 118.422H185.319V373.69H556.623V118.422Z" fill="#E1E6FB"/>
<path d="M292.362 128.325H246.646V178.938H292.362V128.325Z" fill="#BAC5F4"/>
<path d="M343.653 128.325H297.937V178.938H343.653V128.325Z" fill="#BAC5F4"/>
<path d="M393.829 128.325H348.113V178.938H393.829V128.325Z" fill="#BAC5F4"/>
<path d="M445.12 128.325H399.404V178.938H445.12V128.325Z" fill="white"/>
<path d="M495.296 128.325H449.58V178.938H495.296V128.325Z" fill="white"/>
<path d="M546.588 128.325H500.871V178.938H546.588V128.325Z" fill="white"/>
<path d="M292.362 186.64H246.646V237.254H292.362V186.64Z" fill="white"/>
<path d="M343.653 186.64H297.937V237.254H343.653V186.64Z" fill="white"/>
<path d="M393.829 186.64H348.113V237.254H393.829V186.64Z" fill="#F8F8FF"/>
<path d="M445.12 186.64H399.404V237.254H445.12V186.64Z" fill="white"/>
<path d="M495.296 186.64H449.58V237.254H495.296V186.64Z" fill="white"/>
<path d="M546.588 186.64H500.871V237.254H546.588V186.64Z" fill="white"/>
<path d="M292.362 242.755H246.646V293.369H292.362V242.755Z" fill="white"/>
<path d="M343.653 242.755H297.937V293.369H343.653V242.755Z" fill="white"/>
<path d="M393.829 242.755H348.113V293.369H393.829V242.755Z" fill="#F8F8FF"/>
<path d="M445.12 242.755H399.404V293.369H445.12V242.755Z" fill="white"/>
<path d="M495.296 242.755H449.58V293.369H495.296V242.755Z" fill="#F8F8FF"/>
<path d="M546.588 242.755H500.871V293.369H546.588V242.755Z" fill="white"/>
<path d="M293.477 299.971H247.761V350.584H293.477V299.971Z" fill="#F8F8FF"/>
<path d="M344.768 299.971H299.052V350.584H344.768V299.971Z" fill="#F8F8FF"/>
<path d="M394.944 299.971H349.228V350.584H394.944V299.971Z" fill="white"/>
<path d="M446.235 299.971H400.519V350.584H446.235V299.971Z" fill="white"/>
<path d="M496.411 299.971H450.695V350.584H496.411V299.971Z" fill="#BAC5F4"/>
<path d="M547.703 299.971H501.986V350.584H547.703V299.971Z" fill="white"/>
<path d="M195.912 114.021C198.067 114.021 199.815 112.297 199.815 110.17C199.815 108.043 198.067 106.319 195.912 106.319C193.757 106.319 192.009 108.043 192.009 110.17C192.009 112.297 193.757 114.021 195.912 114.021Z" fill="#BAC5F4"/>
<path d="M208.177 114.021C210.333 114.021 212.08 112.297 212.08 110.17C212.08 108.043 210.333 106.319 208.177 106.319C206.022 106.319 204.275 108.043 204.275 110.17C204.275 112.297 206.022 114.021 208.177 114.021Z" fill="#BAC5F4"/>
<path d="M220.442 114.021C222.598 114.021 224.345 112.297 224.345 110.17C224.345 108.043 222.598 106.319 220.442 106.319C218.287 106.319 216.54 108.043 216.54 110.17C216.54 112.297 218.287 114.021 220.442 114.021Z" fill="#BAC5F4"/>
<path d="M232.708 185.54H201.487C198.716 185.54 196.469 187.757 196.469 190.491C196.469 193.226 198.716 195.443 201.487 195.443H232.708C235.479 195.443 237.725 193.226 237.725 190.491C237.725 187.757 235.479 185.54 232.708 185.54Z" fill="white"/>
<path d="M232.708 242.755H201.487C198.716 242.755 196.469 244.972 196.469 247.707C196.469 250.441 198.716 252.658 201.487 252.658H232.708C235.479 252.658 237.725 250.441 237.725 247.707C237.725 244.972 235.479 242.755 232.708 242.755Z" fill="white"/>
<path d="M232.708 299.971H201.487C198.716 299.971 196.469 302.187 196.469 304.922C196.469 307.656 198.716 309.873 201.487 309.873H232.708C235.479 309.873 237.725 307.656 237.725 304.922C237.725 302.187 235.479 299.971 232.708 299.971Z" fill="white"/>
<path d="M272.849 189.941H255.008C252.853 189.941 251.106 191.665 251.106 193.792C251.106 195.919 252.853 197.643 255.008 197.643H272.849C275.004 197.643 276.751 195.919 276.751 193.792C276.751 191.665 275.004 189.941 272.849 189.941Z" fill="#BAC5F4"/>
<path d="M261.698 204.245H253.893C252.354 204.245 251.106 205.476 251.106 206.996C251.106 208.515 252.354 209.746 253.893 209.746H261.698C263.238 209.746 264.486 208.515 264.486 206.996C264.486 205.476 263.238 204.245 261.698 204.245Z" fill="#BAC5F4"/>
<path d="M324.697 189.941H306.857C305.01 189.941 303.512 191.419 303.512 193.242C303.512 195.065 305.01 196.543 306.857 196.543H324.697C326.545 196.543 328.042 195.065 328.042 193.242C328.042 191.419 326.545 189.941 324.697 189.941Z" fill="#BAC5F4"/>
<path d="M476.341 307.673H458.5C456.653 307.673 455.155 309.15 455.155 310.973C455.155 312.797 456.653 314.274 458.5 314.274H476.341C478.188 314.274 479.686 312.797 479.686 310.973C479.686 309.15 478.188 307.673 476.341 307.673Z" fill="white"/>
<path d="M526.517 248.257H508.677C506.829 248.257 505.332 249.735 505.332 251.558C505.332 253.381 506.829 254.858 508.677 254.858H526.517C528.364 254.858 529.862 253.381 529.862 251.558C529.862 249.735 528.364 248.257 526.517 248.257Z" fill="#F5F5FC"/>
<path d="M525.402 191.041H507.562C505.714 191.041 504.217 192.519 504.217 194.342C504.217 196.165 505.714 197.643 507.562 197.643H525.402C527.249 197.643 528.747 196.165 528.747 194.342C528.747 192.519 527.249 191.041 525.402 191.041Z" fill="#F5F5FC"/>
<path d="M475.226 191.041H457.385C455.538 191.041 454.04 192.519 454.04 194.342C454.04 196.165 455.538 197.643 457.385 197.643H475.226C477.073 197.643 478.571 196.165 478.571 194.342C478.571 192.519 477.073 191.041 475.226 191.041Z" fill="#F5F5FC"/>
<path d="M307.972 209.746C310.435 209.746 312.432 207.776 312.432 205.345C312.432 202.914 310.435 200.944 307.972 200.944C305.509 200.944 303.512 202.914 303.512 205.345C303.512 207.776 305.509 209.746 307.972 209.746Z" fill="#BAC5F4"/>
<path d="M409.439 202.044C411.903 202.044 413.899 200.074 413.899 197.643C413.899 195.212 411.903 193.242 409.439 193.242C406.976 193.242 404.979 195.212 404.979 197.643C404.979 200.074 406.976 202.044 409.439 202.044Z" fill="#BAC5F4"/>
<path d="M425.05 202.044C427.513 202.044 429.51 200.074 429.51 197.643C429.51 195.212 427.513 193.242 425.05 193.242C422.586 193.242 420.59 195.212 420.59 197.643C420.59 200.074 422.586 202.044 425.05 202.044Z" fill="#BAC5F4"/>
<path d="M425.05 257.059C427.513 257.059 429.51 255.089 429.51 252.658C429.51 250.227 427.513 248.257 425.05 248.257C422.586 248.257 420.59 250.227 420.59 252.658C420.59 255.089 422.586 257.059 425.05 257.059Z" fill="#BAC5F4"/>
<path d="M409.439 257.059C411.903 257.059 413.899 255.089 413.899 252.658C413.899 250.227 411.903 248.257 409.439 248.257C406.976 248.257 404.979 250.227 404.979 252.658C404.979 255.089 406.976 257.059 409.439 257.059Z" fill="#BAC5F4"/>
<path d="M423.935 313.174C426.398 313.174 428.395 311.204 428.395 308.773C428.395 306.342 426.398 304.372 423.935 304.372C421.471 304.372 419.475 306.342 419.475 308.773C419.475 311.204 421.471 313.174 423.935 313.174Z" fill="#BAC5F4"/>
<path d="M408.324 313.174C410.788 313.174 412.784 311.204 412.784 308.773C412.784 306.342 410.788 304.372 408.324 304.372C405.861 304.372 403.864 306.342 403.864 308.773C403.864 311.204 405.861 313.174 408.324 313.174Z" fill="#BAC5F4"/>
<path d="M272.291 314.274C274.754 314.274 276.751 312.304 276.751 309.873C276.751 307.442 274.754 305.472 272.291 305.472C269.828 305.472 267.831 307.442 267.831 309.873C267.831 312.304 269.828 314.274 272.291 314.274Z" fill="#BAC5F4"/>
<path d="M256.681 314.274C259.144 314.274 261.141 312.304 261.141 309.873C261.141 307.442 259.144 305.472 256.681 305.472C254.218 305.472 252.221 307.442 252.221 309.873C252.221 312.304 254.218 314.274 256.681 314.274Z" fill="#BAC5F4"/>
<path d="M409.439 142.628C411.903 142.628 413.899 140.658 413.899 138.227C413.899 135.796 411.903 133.826 409.439 133.826C406.976 133.826 404.979 135.796 404.979 138.227C404.979 140.658 406.976 142.628 409.439 142.628Z" fill="#BAC5F4"/>
<path d="M357.033 142.628C359.496 142.628 361.493 140.658 361.493 138.227C361.493 135.796 359.496 133.826 357.033 133.826C354.57 133.826 352.573 135.796 352.573 138.227C352.573 140.658 354.57 142.628 357.033 142.628Z" fill="white"/>
<path d="M372.643 142.628C375.107 142.628 377.104 140.658 377.104 138.227C377.104 135.796 375.107 133.826 372.643 133.826C370.18 133.826 368.183 135.796 368.183 138.227C368.183 140.658 370.18 142.628 372.643 142.628Z" fill="white"/>
<path d="M306.857 142.628C309.32 142.628 311.317 140.658 311.317 138.227C311.317 135.796 309.32 133.826 306.857 133.826C304.394 133.826 302.397 135.796 302.397 138.227C302.397 140.658 304.394 142.628 306.857 142.628Z" fill="white"/>
<path d="M322.467 142.628C324.931 142.628 326.927 140.658 326.927 138.227C326.927 135.796 324.931 133.826 322.467 133.826C320.004 133.826 318.007 135.796 318.007 138.227C318.007 140.658 320.004 142.628 322.467 142.628Z" fill="white"/>
<path d="M256.681 142.628C259.144 142.628 261.141 140.658 261.141 138.227C261.141 135.796 259.144 133.826 256.681 133.826C254.218 133.826 252.221 135.796 252.221 138.227C252.221 140.658 254.218 142.628 256.681 142.628Z" fill="white"/>
<path d="M272.291 142.628C274.754 142.628 276.751 140.658 276.751 138.227C276.751 135.796 274.754 133.826 272.291 133.826C269.828 133.826 267.831 135.796 267.831 138.227C267.831 140.658 269.828 142.628 272.291 142.628Z" fill="white"/>
<path d="M426.648 158.666V157.344L432.48 148.116H433.439V150.164H432.791L428.384 157.136V157.24H436.239V158.666H426.648ZM432.895 161.388V158.264V157.648V148.116H434.424V161.388H432.895Z" fill="#BAC5F4"/>
<path d="M327.721 161.388V160.221L332.102 155.426C332.616 154.864 333.04 154.376 333.372 153.961C333.705 153.542 333.951 153.149 334.111 152.782C334.275 152.41 334.357 152.021 334.357 151.615C334.357 151.149 334.245 150.745 334.02 150.403C333.8 150.062 333.498 149.799 333.113 149.613C332.729 149.427 332.297 149.334 331.817 149.334C331.307 149.334 330.862 149.44 330.482 149.652C330.106 149.859 329.815 150.151 329.607 150.527C329.404 150.902 329.303 151.343 329.303 151.849H327.773C327.773 151.071 327.953 150.388 328.311 149.801C328.67 149.213 329.158 148.755 329.776 148.427C330.398 148.099 331.096 147.934 331.869 147.934C332.647 147.934 333.336 148.099 333.936 148.427C334.537 148.755 335.008 149.198 335.349 149.755C335.69 150.313 335.861 150.933 335.861 151.615C335.861 152.103 335.772 152.581 335.595 153.047C335.422 153.51 335.12 154.026 334.688 154.596C334.26 155.162 333.666 155.853 332.906 156.67L329.925 159.858V159.962H336.094V161.388H327.721Z" fill="white"/>
<path d="M276.109 218.383L282.045 206.64V206.537H275.202V205.111H283.704V206.615L277.794 218.383H276.109Z" fill="#BAC5F4"/>
<path d="M421.957 205.177V218.449H420.35V206.862H420.272L417.032 209.014V207.38L420.35 205.177H421.957ZM430.103 218.63C429.127 218.63 428.295 218.365 427.608 217.833C426.921 217.298 426.396 216.522 426.033 215.507C425.671 214.487 425.489 213.256 425.489 211.813C425.489 210.379 425.671 209.154 426.033 208.139C426.401 207.119 426.928 206.341 427.615 205.806C428.306 205.266 429.135 204.996 430.103 204.996C431.071 204.996 431.898 205.266 432.585 205.806C433.276 206.341 433.803 207.119 434.166 208.139C434.533 209.154 434.717 210.379 434.717 211.813C434.717 213.256 434.536 214.487 434.173 215.507C433.81 216.522 433.285 217.298 432.598 217.833C431.911 218.365 431.079 218.63 430.103 218.63ZM430.103 217.205C431.071 217.205 431.823 216.738 432.358 215.805C432.894 214.872 433.162 213.541 433.162 211.813C433.162 210.664 433.039 209.685 432.792 208.877C432.55 208.07 432.201 207.454 431.743 207.031C431.289 206.607 430.742 206.395 430.103 206.395C429.144 206.395 428.394 206.869 427.854 207.815C427.314 208.756 427.044 210.089 427.044 211.813C427.044 212.962 427.165 213.939 427.407 214.742C427.649 215.546 427.997 216.157 428.451 216.576C428.909 216.995 429.459 217.205 430.103 217.205Z" fill="#BAC5F4"/>
<path d="M374.736 262.139V275.411H373.129V263.824H373.051L369.811 265.976V264.343L373.129 262.139H374.736ZM382.7 275.593C381.94 275.593 381.255 275.441 380.646 275.139C380.037 274.837 379.549 274.422 379.181 273.895C378.814 273.368 378.613 272.767 378.579 272.093H380.134C380.195 272.694 380.467 273.191 380.951 273.584C381.439 273.973 382.022 274.167 382.7 274.167C383.245 274.167 383.728 274.039 384.152 273.785C384.58 273.53 384.914 273.18 385.156 272.735C385.403 272.285 385.526 271.778 385.526 271.212C385.526 270.633 385.398 270.117 385.143 269.663C384.893 269.205 384.547 268.844 384.106 268.581C383.666 268.317 383.163 268.183 382.597 268.179C382.19 268.175 381.774 268.237 381.346 268.367C380.918 268.492 380.566 268.654 380.29 268.853L378.786 268.672L379.59 262.139H386.485V263.565H380.938L380.471 267.479H380.549C380.821 267.263 381.162 267.084 381.573 266.941C381.983 266.799 382.411 266.728 382.856 266.728C383.668 266.728 384.392 266.922 385.027 267.311C385.666 267.695 386.167 268.222 386.53 268.892C386.897 269.562 387.081 270.326 387.081 271.186C387.081 272.033 386.891 272.789 386.511 273.454C386.135 274.115 385.616 274.638 384.955 275.022C384.294 275.402 383.543 275.593 382.7 275.593Z" fill="#BAC5F4"/>
<path d="M525.264 264.34V277.612H523.657V266.025H523.58L520.339 268.176V266.543L523.657 264.34H525.264ZM533.332 277.793C532.442 277.793 531.656 277.635 530.974 277.32C530.295 277 529.766 276.562 529.386 276.005C529.006 275.443 528.818 274.804 528.822 274.086C528.818 273.525 528.928 273.006 529.153 272.531C529.377 272.052 529.684 271.652 530.073 271.332C530.466 271.008 530.904 270.803 531.388 270.717V270.639C530.753 270.475 530.248 270.118 529.872 269.57C529.496 269.017 529.31 268.388 529.315 267.684C529.31 267.01 529.481 266.407 529.827 265.876C530.172 265.344 530.647 264.925 531.252 264.619C531.861 264.312 532.555 264.159 533.332 264.159C534.101 264.159 534.788 264.312 535.393 264.619C535.998 264.925 536.473 265.344 536.819 265.876C537.169 266.407 537.346 267.01 537.35 267.684C537.346 268.388 537.154 269.017 536.773 269.57C536.398 270.118 535.899 270.475 535.277 270.639V270.717C535.756 270.803 536.188 271.008 536.573 271.332C536.957 271.652 537.264 272.052 537.493 272.531C537.722 273.006 537.838 273.525 537.843 274.086C537.838 274.804 537.644 275.443 537.259 276.005C536.879 276.562 536.35 277 535.672 277.32C534.998 277.635 534.218 277.793 533.332 277.793ZM533.332 276.367C533.933 276.367 534.451 276.27 534.888 276.076C535.324 275.881 535.661 275.607 535.899 275.253C536.136 274.899 536.257 274.484 536.262 274.009C536.257 273.507 536.128 273.065 535.873 272.68C535.618 272.296 535.27 271.993 534.829 271.773C534.393 271.553 533.894 271.442 533.332 271.442C532.766 271.442 532.261 271.553 531.816 271.773C531.375 271.993 531.028 272.296 530.773 272.68C530.522 273.065 530.399 273.507 530.403 274.009C530.399 274.484 530.513 274.899 530.747 275.253C530.984 275.607 531.324 275.881 531.764 276.076C532.205 276.27 532.728 276.367 533.332 276.367ZM533.332 270.069C533.808 270.069 534.229 269.974 534.596 269.783C534.968 269.593 535.259 269.328 535.471 268.986C535.683 268.645 535.791 268.245 535.795 267.788C535.791 267.338 535.685 266.947 535.477 266.615C535.27 266.278 534.983 266.018 534.616 265.837C534.248 265.651 533.821 265.558 533.332 265.558C532.836 265.558 532.401 265.651 532.03 265.837C531.658 266.018 531.371 266.278 531.168 266.615C530.965 266.947 530.866 267.338 530.87 267.788C530.866 268.245 530.967 268.645 531.174 268.986C531.386 269.328 531.678 269.593 532.049 269.783C532.421 269.974 532.849 270.069 533.332 270.069Z" fill="#BAC5F4"/>
<path d="M311.81 329.755V328.588L316.191 323.793C316.705 323.231 317.128 322.743 317.461 322.328C317.794 321.909 318.04 321.516 318.2 321.149C318.364 320.777 318.446 320.388 318.446 319.982C318.446 319.516 318.334 319.112 318.109 318.771C317.889 318.429 317.586 318.166 317.202 317.98C316.817 317.794 316.385 317.701 315.906 317.701C315.396 317.701 314.951 317.807 314.571 318.019C314.195 318.226 313.903 318.518 313.696 318.894C313.493 319.27 313.391 319.71 313.391 320.216H311.862C311.862 319.438 312.041 318.755 312.4 318.168C312.758 317.58 313.247 317.122 313.864 316.794C314.486 316.466 315.184 316.302 315.957 316.302C316.735 316.302 317.424 316.466 318.025 316.794C318.625 317.122 319.096 317.565 319.437 318.123C319.779 318.68 319.949 319.3 319.949 319.982C319.949 320.471 319.861 320.948 319.684 321.415C319.511 321.877 319.208 322.393 318.776 322.963C318.349 323.529 317.755 324.221 316.994 325.037L314.013 328.225V328.329H320.183V329.755H311.81ZM332.32 329.936C331.344 329.936 330.512 329.67 329.825 329.139C329.138 328.603 328.614 327.828 328.251 326.813C327.888 325.793 327.706 324.562 327.706 323.119C327.706 321.685 327.888 320.46 328.251 319.445C328.618 318.425 329.145 317.647 329.832 317.112C330.523 316.572 331.353 316.302 332.32 316.302C333.288 316.302 334.115 316.572 334.802 317.112C335.493 317.647 336.021 318.425 336.383 319.445C336.751 320.46 336.934 321.685 336.934 323.119C336.934 324.562 336.753 325.793 336.39 326.813C336.027 327.828 335.502 328.603 334.815 329.139C334.128 329.67 333.297 329.936 332.32 329.936ZM332.32 328.51C333.288 328.51 334.04 328.044 334.575 327.111C335.111 326.178 335.379 324.847 335.379 323.119C335.379 321.97 335.256 320.991 335.01 320.183C334.768 319.375 334.418 318.76 333.96 318.336C333.506 317.913 332.96 317.701 332.32 317.701C331.361 317.701 330.612 318.174 330.072 319.121C329.532 320.062 329.262 321.395 329.262 323.119C329.262 324.268 329.382 325.244 329.624 326.048C329.866 326.852 330.214 327.463 330.668 327.882C331.126 328.301 331.677 328.51 332.32 328.51Z" fill="#BAC5F4"/>
<g clip-path="url(#clip2_2_194)">
<path d="M259.546 388.996L257.926 388.951L249.51 389.041C249.51 389.041 247.664 397.682 246.674 401.283C246.629 401.508 246.404 402.093 246.314 402.543C246.179 403.173 246.134 403.803 246.134 404.433C246.314 407.719 247.529 410.465 250.455 411.95C253.65 413.57 256.126 415.055 259.546 411.95C262.967 408.844 263.417 406.864 262.112 401.463C260.807 396.062 260.356 389.176 259.546 388.996Z" fill="#4B49BB"/>
<path d="M294.787 399.753C288.981 397.907 285.111 390.031 285.111 390.031L275.209 389.446C275.209 389.446 274.669 397.457 274.399 401.508C274.039 406.909 274.939 409.294 278.495 409.024C283.175 408.664 302.213 410.374 305.229 408.439C309.145 405.919 300.188 401.463 294.787 399.753Z" fill="#4B49BB"/>
<path d="M235.332 246.772V258.609L249.645 389.131H259.771C259.771 389.131 263.282 299.611 263.282 296.505C263.282 293.4 264.182 283.678 264.182 283.678C264.182 283.678 276.919 320.449 277.144 323.51C277.369 326.57 275.074 389.896 275.074 389.896L285.201 390.301C285.201 390.301 294.067 347.454 294.067 343.403C294.067 339.353 297.083 318.289 296.633 314.238C296.182 310.188 288.666 247.087 288.666 247.087L273.139 246.682L235.332 246.772Z" fill="url(#paint0_linear_2_194)"/>
<path d="M300.998 233.045L300.863 232.865C300.908 233 300.953 233.09 300.998 233.045ZM271.248 221.568L265.577 223.908L265.262 231.74L271.518 234.215C271.518 234.17 278.359 233.945 278.359 233.9C278.404 233.585 281.06 233.675 282.275 234.44L303.474 227.149L304.239 222.063C304.239 222.063 305.814 228.454 298.703 215.582L271.248 221.568ZM296.588 195.734L296.137 193.168L295.057 192.988L296.588 195.734ZM257.386 127.547C254.776 128.627 253.515 132.453 253.515 132.453C253.515 132.453 252.255 131.688 252.255 133.848C252.255 136.009 253.335 140.869 254.1 142.13C255.451 144.245 256.666 146.405 257.746 148.656C258.781 150.906 258.421 155.497 257.341 156.172C256.261 156.847 236.998 174.13 236.998 174.13L221.11 222.918V224.853L223.54 225.709L226.061 227.869C226.286 227.914 229.481 229.669 229.931 229.984C232.452 231.245 235.152 232.19 237.898 232.82C239.698 233.18 247.664 233 247.664 233L255.721 232.82L254.325 222.558L242.398 222.423L226.106 221.613L242.624 183.627L294.742 192.943C285.471 176.2 275.074 157.387 274.174 155.407C273.409 153.787 274.219 149.916 274.669 147.891C275.074 146.045 275.974 143.795 276.829 143.12C277.684 142.445 279.215 139.474 279.215 138.169C279.215 136.864 279.575 131.778 278.494 132.858C278.179 133.173 276.919 131.238 276.469 129.303C275.749 126.512 273.814 124.532 271.563 122.731C271.563 122.731 260.086 126.512 257.521 127.592" fill="url(#paint1_linear_2_194)"/>
<path d="M237.448 163.643C234.927 165.354 232.587 167.649 231.732 170.619C230.877 173.59 224.801 196.724 223.99 199.649C222.01 206.806 220.84 208.876 218.499 217.292C215.619 227.644 222.235 229.219 228.986 230.749C236.007 232.325 236.052 233 237.718 233C237.988 233 246.314 234.71 246.584 229.984C246.764 227.014 246.224 222.288 245.099 222.423C242.534 222.783 234.252 220.578 233.847 220.308C233.307 219.948 235.647 213.467 236.998 209.461C237.988 206.49 241.813 194.158 242.669 191.863C243.119 190.603 240.508 203.835 238.933 216.797C238.888 217.292 238.258 222.333 238.438 222.333C240.328 222.333 245.504 222.423 247.124 222.603C254.415 223.458 255.811 226.924 255.361 229.714C254.551 234.575 236.818 232.325 236.908 232.955C236.908 232.955 233.847 246.727 235.557 247.582C237.043 248.347 256.936 256.629 261.167 258.249C261.617 258.429 262.157 258.204 262.337 257.709C262.337 257.709 262.337 257.709 262.337 257.664L265.037 249.923C265.082 249.833 265.172 249.788 265.262 249.833C265.307 249.833 265.352 249.878 265.352 249.923L267.918 258.384C267.963 258.609 268.143 258.789 268.323 258.879H269.448L291.547 254.108C291.547 254.108 291.457 245.377 291.412 234.215C291.412 233.09 291.232 228.949 290.421 229.714C289.611 230.479 271.158 232.91 269.133 232.055C264.857 230.254 265.982 225.799 267.468 223.953C269.178 221.838 290.962 220.803 291.052 219.228C291.412 212.386 290.872 194.428 290.512 196.589C289.971 199.964 277.234 218.417 277.234 221.613C277.234 224.809 277.009 232.91 277.009 232.91L297.938 231.29C297.938 231.29 304.959 228.859 305.589 224.809C306.219 220.758 305.454 218.958 305.184 212.927C305.004 209.101 299.603 186.102 298.073 179.576C297.848 178.586 297.713 177.596 297.623 176.605C297.443 173.905 296.362 167.604 290.557 164.859C283.355 161.438 277.729 158.737 276.289 158.737C274.939 158.737 271.248 166.839 269.313 169.134C268.458 170.169 268.638 170.664 267.513 172.195C266.928 173.005 265.847 173.14 265.037 172.6C264.857 172.465 264.722 172.285 264.587 172.105C263.957 171.205 263.417 170.214 262.922 169.224C262.067 167.514 255.451 157.747 255.451 157.747C255.451 157.747 239.968 161.888 237.448 163.643Z" fill="url(#paint2_linear_2_194)"/>
<path d="M271.518 122.776C271.518 122.776 257.386 128.042 256.396 128.807C255.406 129.573 253.515 132.453 253.515 132.453C253.515 132.453 252.525 131.913 252.3 133.398C252.3 133.398 250.86 130.428 250.68 128.762C250.5 127.097 250.68 122.821 253.38 119.986C256.081 117.15 261.527 113.415 264.902 113.91C268.278 114.405 269.718 114.81 271.833 116.925C273.949 119.041 275.749 119.671 276.379 119.986C277.009 120.301 279.44 122.056 279.845 125.342C280.25 128.627 279.125 135.199 279.125 135.199C279.125 135.199 279.44 132.633 278.404 133.443C277.684 133.983 276.649 131.643 276.334 130.248C275.929 128.897 272.283 123.136 271.518 122.776Z" fill="url(#paint3_linear_2_194)"/>
<g opacity="0.07">
<path d="M276.244 158.782C276.154 158.512 277.774 159.728 275.884 158.377C273.229 156.442 274.489 148.521 274.489 148.521C273.499 150.591 271.788 152.211 269.673 153.022C266.297 154.282 265.262 153.337 270.483 156.352C275.614 159.323 272.959 160.358 272.599 164.273" fill="white"/>
</g>
<g opacity="0.07">
<path d="M286.596 186.777L293.617 213.377C293.617 213.377 293.572 218.102 292.177 218.822C290.782 219.543 286.371 219.993 285.336 220.443C284.3 220.893 273.544 223.143 276.334 219.363C276.964 218.507 291.547 213.422 285.021 208.066C278.494 202.71 279.665 195.284 282.815 190.153C285.966 185.022 285.291 180.656 285.291 180.656L286.596 186.777Z" fill="black"/>
</g>
<g opacity="0.07">
<path d="M256.846 256.899C256.846 256.899 250.77 289.124 253.92 301.996C258.691 321.53 251.805 347.949 251.805 360.641C251.805 368.878 255.046 391.651 255.271 400.923C255.316 403.713 257.341 409.114 255.856 410.374C255.226 410.915 251.355 409.654 249.24 408.664C248.114 408.124 247.484 406.954 247.619 405.784L248.88 400.293L250.68 393.002L238.078 275.082C238.078 275.082 234.027 248.843 236.322 248.753C238.618 248.662 256.891 256.899 256.846 256.899Z" fill="black"/>
</g>
<path d="M251.085 213.557L274.894 216.527C275.389 216.662 275.704 217.112 275.659 217.652L274.984 239.166C274.939 239.841 274.534 240.741 273.904 240.561L250.23 236.015C249.78 235.88 249.465 235.475 249.465 234.98L249.375 232.64L251.985 231.965C252.66 231.785 253.29 231.425 253.83 231.02C253.965 230.93 254.055 230.84 254.145 230.704L254.686 229.894C254.866 229.669 254.911 229.354 254.866 229.039C254.776 228.544 254.641 227.869 254.551 227.509C254.505 227.374 254.46 227.239 254.415 227.149L253.83 225.889C253.56 225.304 253.11 224.854 252.525 224.583L252.165 224.403L249.6 223.008L249.825 214.592C249.825 214.007 250.32 213.557 250.905 213.557C250.995 213.557 251.04 213.557 251.085 213.557Z" fill="white"/>
</g>
<path d="M554.204 400.509C551.834 396.572 549.946 395.527 544.08 395.367C538.215 395.206 530.421 395.286 530.421 395.286L530.341 403.603C530.341 403.603 536.809 407.339 540.264 409.187C540.465 409.307 541.027 409.629 541.429 409.87C542.031 410.151 542.674 410.392 543.317 410.553C546.732 411.276 549.825 410.914 552.035 408.705C554.485 406.254 556.575 404.446 554.204 400.509Z" fill="#4B49BB"/>
<path d="M509.972 393.117C509.772 393.278 509.249 393.68 508.888 393.961C508.406 394.403 507.964 394.925 507.562 395.447C505.634 398.34 504.79 401.353 506.035 404.245C507.401 407.419 508.325 410.071 512.825 409.307C517.324 408.544 519.052 407.178 521.382 401.835C523.712 396.492 526.564 389.18 526.524 389.18L518.851 386.006C518.851 386.006 512.985 390.626 509.972 393.117Z" fill="#4B49BB"/>
<path d="M530.943 395.648C530.943 395.648 531.064 404.044 529.698 404.245C528.332 404.446 509.49 401.714 501.978 401.313C494.465 400.911 477.431 396.05 469.075 386.609C461.844 378.453 462.969 369.414 468.312 369.414C473.655 369.414 478.556 364.875 492.135 371.343C505.714 377.811 520.096 378.895 528.171 378.253C536.246 377.61 558.864 373.432 560.632 372.146C562.4 370.861 570.877 367.165 582.688 368.45C594.499 369.736 588.915 379.096 586.424 382.712C582.929 387.734 574.653 393.117 567.743 393.358C560.833 393.599 530.943 395.648 530.943 395.648Z" fill="url(#paint4_linear_2_194)"/>
<path d="M516.963 248.811C512.985 250.258 507.924 269.943 507.924 269.943L507.843 269.863L507.281 272.594L506.598 276.17L507.924 297.543L520.779 303.97L550.307 311.925L558.463 323.535C558.463 323.535 576.742 342.136 576.862 343.422C576.983 344.707 557.217 351.256 555.329 351.537C550.789 352.22 584.375 343.984 573.608 330.927C569.029 325.343 562.319 308.55 549.022 297.422C541.308 290.994 543.478 272.715 540.746 261.145C537.331 246.682 535.242 242.343 531.827 242.343C528.734 242.343 524.435 246.039 516.963 248.811Z" fill="url(#paint5_linear_2_194)"/>
<path d="M558.744 295.534C552.557 289.869 550.468 288.503 545.045 290.432C539.621 292.36 536.969 294.128 529.577 295.333C525.038 296.136 520.337 295.534 516.119 293.686L500.893 295.212C498.965 294.971 477.311 335.628 476.788 344.064C476.467 349.247 488.238 357.241 491.532 358.045C492.858 358.366 495.228 345.591 495.992 344.426L491.05 342.899C491.934 340.69 494.907 335.226 496.876 332.293C497.478 331.369 502.179 323.616 502.821 320.643C502.942 320.924 503.625 326.548 504.268 328.356C505.473 331.691 507.12 333.579 507.12 336.23C507.12 338.882 506.799 349.407 504.87 354.148C502.942 358.889 500.13 369.856 500.13 369.856L548.821 369.575C548.821 369.575 547.053 348.644 547.776 341.453C547.776 341.453 547.013 338.56 548.459 334.382C550.83 327.472 551.513 317.188 551.111 315.581C550.508 313.05 565.413 334.463 568.667 339.886C570.033 342.136 551.513 346.113 549.986 347.841C548.379 349.649 551.553 354.55 551.553 354.55C551.553 354.55 583.853 350.613 583.692 345.671C583.531 340.73 565.935 302.082 558.744 295.534Z" fill="url(#paint6_linear_2_194)"/>
<path d="M520.86 237.241C520.86 237.241 511.82 237.603 509.209 247.084C506.598 256.565 506.236 269.782 506.156 271.831C506.075 274 507.08 286.696 502.219 291.999C498.041 296.578 499.728 300.998 498.683 304.653L498.201 310.72C498.282 311.443 498.804 312.045 499.487 312.286C500.13 312.487 502.379 311.443 502.781 311.282C508.406 309.032 508.406 307.225 510.535 305.417C512.303 303.93 517.164 300.475 518.61 299.109C520.056 297.743 521.06 296.538 521.141 294.811C521.422 286.013 519.895 277.897 517.967 273.599C516.039 269.3 512.343 262.029 515.436 257.208C518.53 252.387 524.114 247.566 524.435 246.361C524.757 245.155 524.917 251.021 528.332 253.07C531.747 255.119 534.599 257.971 535.644 260.743C536.528 263.073 537.693 267.05 534.479 273.92C531.265 280.79 528.653 289.628 533.193 296.177C537.733 302.725 547.294 309.796 548.861 313.09C550.629 316.746 548.941 325.343 548.62 330.526C548.299 335.708 558.744 321.527 558.423 314.777C558.101 308.028 559.226 305.135 552.758 294.771C546.29 284.406 542.072 266.649 541.911 262.35C541.75 258.051 539.822 246.12 535.925 242.705C532.55 239.812 531.827 237 524.917 237C523.551 237 522.185 237.08 520.86 237.241Z" fill="url(#paint7_linear_2_194)"/>
<path opacity="0.07" d="M500.25 380.904L545.888 381.145C545.888 381.145 540.545 385.323 537.974 385.805C535.403 386.287 524.395 391.751 520.297 389.662C517.405 388.095 500.25 380.904 500.25 380.904Z" fill="black"/>
<path opacity="0.07" d="M525.681 278.42C525.681 278.42 529.939 279.504 531.707 277.014C535.684 271.389 532.068 279.866 532.068 279.866C532.068 279.866 530.903 283.16 530.984 284.807C531.064 286.454 526.404 278.661 525.681 278.42Z" fill="black"/>
<path opacity="0.07" d="M508.647 307.345C508.124 307.988 507.361 308.51 506.959 310.157C506.276 312.809 505.553 315.782 503.705 318.514C502.621 320.12 503.223 326.347 505.031 330.285C505.553 331.409 507.16 334.342 507.12 335.025L507 340.73H511.901C511.901 340.73 516.079 341.172 515.195 337.717C514.432 334.664 510.455 323.294 513.146 320.803C518.208 316.183 511.82 306.943 514.191 303.97C516.24 301.399 519.172 299.551 519.172 298.708C519.172 298.386 518.409 299.431 517.887 299.792C516.882 300.515 516.36 301.078 515.516 301.64C514.592 302.243 513.186 303.247 512.262 303.93C510.937 304.935 509.731 306.06 508.647 307.345Z" fill="black"/>
<path d="M489.564 343.944C489.564 343.944 489.524 340.971 492.456 340.85C495.389 340.73 557.499 340.81 557.499 340.81C557.499 340.81 560.23 341.132 560.311 343.341C560.391 345.551 560.391 378.373 560.391 378.373C560.391 378.373 560.431 380.904 557.74 380.984C555.048 381.065 491.733 381.065 491.733 381.065C491.733 381.065 489.363 380.462 489.403 378.092C489.443 375.722 489.564 343.944 489.564 343.944Z" fill="white"/>
<path d="M525.158 363.629C526.645 363.629 527.85 362.424 527.85 360.937C527.85 359.451 526.645 358.246 525.158 358.246C523.672 358.246 522.467 359.451 522.467 360.937C522.467 362.424 523.672 363.629 525.158 363.629Z" fill="#77C7E8"/>
</g>
<defs>
<linearGradient id="paint0_linear_2_194" x1="235.323" y1="318.561" x2="296.636" y2="318.561" gradientUnits="userSpaceOnUse">
<stop stop-color="#4B45BD"/>
<stop offset="1" stop-color="#58CAEA"/>
</linearGradient>
<linearGradient id="paint1_linear_2_194" x1="221.128" y1="178.602" x2="304.385" y2="178.602" gradientUnits="userSpaceOnUse">
<stop stop-color="#F87B58"/>
<stop offset="0.41" stop-color="#F89453"/>
<stop offset="0.71" stop-color="#F8C548"/>
<stop offset="1" stop-color="#F89C51"/>
</linearGradient>
<linearGradient id="paint2_linear_2_194" x1="217.798" y1="208.367" x2="305.827" y2="208.367" gradientUnits="userSpaceOnUse">
<stop stop-color="#4B45BD"/>
<stop offset="1" stop-color="#58CAEA"/>
</linearGradient>
<linearGradient id="paint3_linear_2_194" x1="250.602" y1="124.537" x2="279.9" y2="124.537" gradientUnits="userSpaceOnUse">
<stop stop-color="#4B45BD"/>
<stop offset="1" stop-color="#58CAEA"/>
</linearGradient>
<linearGradient id="paint4_linear_2_194" x1="589.941" y1="386.061" x2="463.977" y2="386.061" gradientUnits="userSpaceOnUse">
<stop stop-color="#4B45BD"/>
<stop offset="1" stop-color="#58CAEA"/>
</linearGradient>
<linearGradient id="paint5_linear_2_194" x1="506.598" y1="296.96" x2="576.863" y2="296.96" gradientUnits="userSpaceOnUse">
<stop stop-color="#F87B58"/>
<stop offset="0.5" stop-color="#F8C548"/>
<stop offset="1" stop-color="#F89C51"/>
</linearGradient>
<linearGradient id="paint6_linear_2_194" x1="476.782" y1="329.732" x2="583.693" y2="329.732" gradientUnits="userSpaceOnUse">
<stop stop-color="#4B45BD"/>
<stop offset="1" stop-color="#58CAEA"/>
</linearGradient>
<linearGradient id="paint7_linear_2_194" x1="498.201" y1="284.321" x2="558.43" y2="284.321" gradientUnits="userSpaceOnUse">
<stop stop-color="#4B45BD"/>
<stop offset="1" stop-color="#58CAEA"/>
</linearGradient>
<clipPath id="clip0_2_194">
<rect width="488" height="723" fill="white" transform="matrix(0 -1 1 0 0 488)"/>
</clipPath>
<clipPath id="clip1_2_194">
<rect width="544" height="373" fill="white" transform="translate(93 37)"/>
</clipPath>
<clipPath id="clip2_2_194">
<rect width="133" height="299.75" fill="white" transform="translate(200 114)"/>
</clipPath>
</defs>
</svg>
