<svg width="35" height="35" viewBox="0 0 35 35" fill="none" xmlns="http://www.w3.org/2000/svg">
<path fill-rule="evenodd" clip-rule="evenodd" d="M7 8.75C7 6.42936 7.92187 4.20376 9.56282 2.56282C11.2038 0.921872 13.4294 0 15.75 0C18.0706 0 20.2962 0.921872 21.9372 2.56282C23.5781 4.20376 24.5 6.42936 24.5 8.75C24.5 11.0706 23.5781 13.2962 21.9372 14.9372C20.2962 16.5781 18.0706 17.5 15.75 17.5C13.4294 17.5 11.2038 16.5781 9.56282 14.9372C7.92187 13.2962 7 11.0706 7 8.75ZM4.9385 22.176C7.74375 20.4645 11.5588 19.25 15.75 19.25C16.5328 19.25 17.3005 19.2908 18.053 19.3725C18.3536 19.4047 18.6407 19.5143 18.8864 19.6905C19.132 19.8667 19.3278 20.1036 19.4547 20.378C19.5816 20.6524 19.6353 20.955 19.6104 21.2563C19.5856 21.5576 19.4831 21.8473 19.313 22.0972C18.1277 23.8372 17.4958 25.8947 17.5 28C17.5 29.61 17.8622 31.1325 18.5063 32.4922C18.6317 32.7571 18.6887 33.0493 18.6718 33.3419C18.655 33.6346 18.5649 33.9183 18.4099 34.167C18.2548 34.4158 18.0398 34.6216 17.7845 34.7656C17.5292 34.9096 17.2418 34.9872 16.9488 34.9913C16.5521 34.9971 16.1525 35 15.75 35C11.8492 35 8.16375 34.755 5.40225 34.0235C4.0285 33.6595 2.73525 33.138 1.75525 32.3505C0.7175 31.5175 0 30.3538 0 28.875C0 27.4977 0.6265 26.2097 1.477 25.1318C2.3415 24.038 3.53675 23.0317 4.9385 22.1742V22.176ZM27.125 24.5C26.4288 24.5 25.7611 24.7766 25.2688 25.2688C24.7766 25.7611 24.5 26.4288 24.5 27.125C24.5 27.8212 24.7766 28.4889 25.2688 28.9812C25.7611 29.4734 26.4288 29.75 27.125 29.75C27.8212 29.75 28.4889 29.4734 28.9812 28.9812C29.4734 28.4889 29.75 27.8212 29.75 27.125C29.75 26.4288 29.4734 25.7611 28.9812 25.2688C28.4889 24.7766 27.8212 24.5 27.125 24.5ZM21 27.125C21.0007 26.1931 21.214 25.2737 21.6237 24.4367C22.0334 23.5997 22.6287 22.8672 23.3643 22.295C24.0999 21.7228 24.9563 21.326 25.8683 21.1348C26.7804 20.9436 27.7241 20.9631 28.6275 21.1917C29.5309 21.4203 30.3703 21.852 31.0816 22.454C31.793 23.056 32.3576 23.8124 32.7325 24.6655C33.1074 25.5187 33.2827 26.4462 33.245 27.3773C33.2073 28.3084 32.9576 29.2187 32.515 30.0388L33.9745 31.5C34.1416 31.6614 34.275 31.8545 34.3667 32.068C34.4584 32.2816 34.5067 32.5112 34.5087 32.7435C34.5107 32.9759 34.4664 33.2064 34.3784 33.4214C34.2904 33.6365 34.1605 33.8319 33.9962 33.9962C33.8319 34.1605 33.6365 34.2904 33.4214 34.3784C33.2064 34.4664 32.9759 34.5107 32.7435 34.5087C32.5112 34.5067 32.2816 34.4584 32.068 34.3667C31.8545 34.275 31.6614 34.1416 31.5 33.9745L30.0388 32.5133C29.1057 33.0179 28.0576 33.2715 26.997 33.2494C25.9365 33.2272 24.8999 32.93 23.9887 32.3868C23.0775 31.8436 22.3231 31.0731 21.7992 30.1508C21.2753 29.2284 20.9999 28.1858 21 27.125Z" fill="#1878D5"/>
</svg>
