<svg width="30" height="34" viewBox="0 0 30 34" fill="none" xmlns="http://www.w3.org/2000/svg">
<g clip-path="url(#clip0_10_30)">
<path d="M8.32537 0C9.19042 0 9.88637 0.692949 9.88637 1.55428V4.14474H19.2524V1.55428C19.2524 0.692949 19.9484 0 20.8134 0C21.6785 0 22.3744 0.692949 22.3744 1.55428V4.14474H24.9761C27.2721 4.14474 29.1388 6.0034 29.1388 8.28948V29.0132C29.1388 31.2993 27.2721 33.1579 24.9761 33.1579H4.16268C1.8667 33.1579 0 31.2993 0 29.0132V8.28948C0 6.0034 1.8667 4.14474 4.16268 4.14474H6.76436V1.55428C6.76436 0.692949 7.46031 0 8.32537 0ZM26.0168 12.4342H3.12201V29.0132C3.12201 29.5831 3.59031 30.0494 4.16268 30.0494H24.9761C25.5485 30.0494 26.0168 29.5831 26.0168 29.0132V12.4342ZM21.3988 19.2342L14.1141 26.4875C13.5027 27.0962 12.5141 27.0962 11.9092 26.4875L7.74649 22.3427C7.1351 21.734 7.1351 20.7496 7.74649 20.1473C8.35789 19.545 9.34652 19.5386 9.95141 20.1473L13.0084 23.1911L19.1874 17.0388C19.7988 16.43 20.7874 16.43 21.3923 17.0388C21.9972 17.6475 22.0037 18.6319 21.3923 19.2342H21.3988Z" fill="white"/>
</g>
<defs>
<clipPath id="clip0_10_30">
<rect width="29.1388" height="33.1579" fill="white"/>
</clipPath>
</defs>
</svg>
