<svg width="177" height="31" viewBox="0 0 177 31" fill="none" xmlns="http://www.w3.org/2000/svg">
<path d="M3.39844 1.34766H8.98438L15.332 21.1328L21.6797 1.34766H27.2656L17.5977 29.7852H13.0664L3.39844 1.34766ZM0 1.34766H5.78125L6.85547 23.1445V29.7852H0V1.34766ZM24.8828 1.34766H30.6836V29.7852H23.8086V23.1445L24.8828 1.34766ZM41.7188 8.65234V29.7852H35.1172V8.65234H41.7188ZM34.7266 3.20312C34.7266 2.26562 35.0651 1.4974 35.7422 0.898438C36.4193 0.299479 37.2982 0 38.3789 0C39.4596 0 40.3385 0.299479 41.0156 0.898438C41.6927 1.4974 42.0312 2.26562 42.0312 3.20312C42.0312 4.14062 41.6927 4.90885 41.0156 5.50781C40.3385 6.10677 39.4596 6.40625 38.3789 6.40625C37.2982 6.40625 36.4193 6.10677 35.7422 5.50781C35.0651 4.90885 34.7266 4.14062 34.7266 3.20312Z" fill="black"/>
<path d="M59.8633 1.34766V29.7852H53.0078V1.34766H59.8633ZM68.418 1.34766V6.64062H44.6484V1.34766H68.418ZM86.7578 1.34766H93.6133V19.9219C93.6133 22.1354 93.151 24.0104 92.2266 25.5469C91.3021 27.0703 90.0065 28.2227 88.3398 29.0039C86.6732 29.7852 84.7135 30.1758 82.4609 30.1758C80.2344 30.1758 78.2747 29.7852 76.582 29.0039C74.9023 28.2227 73.5872 27.0703 72.6367 25.5469C71.6992 24.0104 71.2305 22.1354 71.2305 19.9219V1.34766H78.1055V19.9219C78.1055 21.0938 78.2747 22.0508 78.6133 22.793C78.9518 23.5221 79.4466 24.056 80.0977 24.3945C80.7487 24.7331 81.5365 24.9023 82.4609 24.9023C83.3984 24.9023 84.1862 24.7331 84.8242 24.3945C85.4622 24.056 85.944 23.5221 86.2695 22.793C86.5951 22.0508 86.7578 21.0938 86.7578 19.9219V1.34766ZM97.9297 1.34766H109.121C111.309 1.34766 113.21 1.67318 114.824 2.32422C116.439 2.97526 117.682 3.9388 118.555 5.21484C119.44 6.49089 119.883 8.06641 119.883 9.94141C119.883 11.569 119.629 12.9297 119.121 14.0234C118.613 15.1172 117.904 16.0221 116.992 16.7383C116.094 17.4414 115.046 18.0208 113.848 18.4766L111.602 19.7461H102.207L102.168 14.4531H109.121C109.993 14.4531 110.716 14.2969 111.289 13.9844C111.862 13.6719 112.292 13.2292 112.578 12.6562C112.878 12.0703 113.027 11.3737 113.027 10.5664C113.027 9.74609 112.878 9.04297 112.578 8.45703C112.279 7.87109 111.836 7.42188 111.25 7.10938C110.677 6.79688 109.967 6.64062 109.121 6.64062H104.785V29.7852H97.9297V1.34766ZM113.496 29.7852L107.207 17.207L114.473 17.168L120.84 29.4922V29.7852H113.496ZM147.773 1.34766V29.7852H140.938L130.879 12.0898V29.7852H124.023V1.34766H130.879L140.938 19.043V1.34766H147.773ZM176.172 15V16.1523C176.172 18.3268 175.866 20.2799 175.254 22.0117C174.655 23.7305 173.802 25.2018 172.695 26.4258C171.589 27.6367 170.28 28.5677 168.77 29.2188C167.259 29.8568 165.592 30.1758 163.77 30.1758C161.934 30.1758 160.254 29.8568 158.73 29.2188C157.22 28.5677 155.905 27.6367 154.785 26.4258C153.678 25.2018 152.819 23.7305 152.207 22.0117C151.608 20.2799 151.309 18.3268 151.309 16.1523V15C151.309 12.8255 151.608 10.8724 152.207 9.14062C152.819 7.40885 153.672 5.9375 154.766 4.72656C155.872 3.5026 157.181 2.57161 158.691 1.93359C160.215 1.28255 161.895 0.957031 163.73 0.957031C165.553 0.957031 167.22 1.28255 168.73 1.93359C170.254 2.57161 171.569 3.5026 172.676 4.72656C173.783 5.9375 174.642 7.40885 175.254 9.14062C175.866 10.8724 176.172 12.8255 176.172 15ZM169.219 16.1523V14.9609C169.219 13.5547 169.095 12.3177 168.848 11.25C168.613 10.1693 168.262 9.26432 167.793 8.53516C167.324 7.80599 166.745 7.25911 166.055 6.89453C165.378 6.51693 164.603 6.32812 163.73 6.32812C162.819 6.32812 162.025 6.51693 161.348 6.89453C160.671 7.25911 160.104 7.80599 159.648 8.53516C159.193 9.26432 158.848 10.1693 158.613 11.25C158.392 12.3177 158.281 13.5547 158.281 14.9609V16.1523C158.281 17.5456 158.392 18.7826 158.613 19.8633C158.848 20.931 159.193 21.8359 159.648 22.5781C160.117 23.3203 160.69 23.8802 161.367 24.2578C162.057 24.6354 162.858 24.8242 163.77 24.8242C164.642 24.8242 165.417 24.6354 166.094 24.2578C166.771 23.8802 167.337 23.3203 167.793 22.5781C168.262 21.8359 168.613 20.931 168.848 19.8633C169.095 18.7826 169.219 17.5456 169.219 16.1523Z" fill="#1878D5"/>
</svg>
