<svg width="544" height="373" viewBox="0 0 544 373" fill="none" xmlns="http://www.w3.org/2000/svg">
<mask id="mask0_21_2" style="mask-type:luminance" maskUnits="userSpaceOnUse" x="0" y="0" width="544" height="373">
<path d="M544 0H0V373H544V0Z" fill="white"/>
</mask>
<g mask="url(#mask0_21_2)">
<path d="M30.821 63.273L16.692 77.215L29.874 90.224L44.003 76.281L30.821 63.273Z" fill="#469EE3"/>
<path d="M46.427 79.785L32.298 93.727L45.48 106.736L59.609 92.794L46.427 79.785Z" fill="#469EE3"/>
<path d="M49.77 46.7712L35.641 60.7134L48.823 73.722L62.952 59.7798L49.77 46.7712Z" fill="#469EE3"/>
<path d="M495.789 284.438L481.66 298.38L494.842 311.388L508.971 297.446L495.789 284.438Z" fill="#4854B6"/>
<path d="M307.033 21H171V90.319H307.033V21Z" fill="#A6D3F6"/>
<path d="M109.045 259.67H57.753V371.9H109.045V259.67Z" fill="#5CA6E0"/>
<path d="M82.284 269.572C82.284 269.572 37.683 198.053 35.453 179.348C33.223 160.643 30.993 154.041 30.993 154.041C30.993 154.041 44.373 151.841 48.833 161.743C53.293 171.646 66.674 159.543 71.134 185.95C71.134 185.95 72.249 199.153 82.284 194.752C92.319 190.351 82.284 269.572 82.284 269.572Z" fill="#3FBE83"/>
<path d="M87.859 280.575C87.859 280.575 56.014 222.26 45.488 199.153C37.683 182.011 30.993 154.041 30.993 154.041C30.993 154.041 17.546 158.905 18.727 169.445C19.843 179.348 9.807 182.649 12.037 194.752C14.446 207.846 33.624 210.299 22.073 222.26C15.059 229.511 20.322 241.889 25.418 249.767C28.685 254.806 44.797 259.395 41.028 257.469C32.398 253.068 87.859 280.575 87.859 280.575Z" fill="#3FBE83"/>
<path d="M67.657 231.675C68.776 231.166 64.255 219.12 57.56 204.768C50.864 190.416 44.529 179.194 43.411 179.702C42.292 180.211 46.813 192.257 53.508 206.609C60.204 220.96 66.539 232.183 67.657 231.675Z" fill="white"/>
<path d="M97.437 316.324C97.437 316.324 29.532 265.71 20.567 249.085C11.603 232.459 7.087 227.079 7.087 227.079C7.087 227.079 18.739 220.224 26.544 227.849C34.349 235.474 42.355 219.399 56.237 242.395C56.237 242.395 57.765 258.536 67.8 255.235C78.203 251.846 97.437 316.324 97.437 316.324Z" fill="#62E3A7"/>
<path d="M106.681 324.587C106.681 324.587 55.523 281.675 37.203 263.928C23.611 250.724 7.098 227.101 7.098 227.101C7.098 227.101 -3.6401 236.464 1.344 245.806C6.0271 254.608 -2.1014 261.309 4.4438 271.784C11.513 283.117 30.29 278.518 23.934 293.79C20.076 303.065 29.51 312.704 37.192 318.216C42.087 321.737 58.79 320.23 54.575 319.79C44.875 318.854 106.681 324.587 106.681 324.587Z" fill="#62E3A7"/>
<path d="M63.117 299.599C63.972 298.724 55.322 289.124 43.797 278.157C32.272 267.189 22.236 259.008 21.381 259.882C20.526 260.757 29.176 270.357 40.701 281.325C52.226 292.292 62.262 300.474 63.117 299.599Z" fill="#E1E6FB"/>
<path d="M451.358 181.648C451.358 181.648 504.366 96.595 507.767 73.94C511.167 51.2847 513.977 43.3406 513.977 43.3406C513.977 43.3406 499.259 40.0397 493.818 51.9229C488.376 63.806 474.16 48.4569 467.893 80.388C467.893 80.388 465.998 96.408 455.093 90.609C444.188 84.811 451.358 181.648 451.358 181.648Z" fill="#369775"/>
<path d="M444.667 194.752C444.667 194.752 482.879 125.203 495.691 97.552C505.202 77.032 514.011 43.2966 514.011 43.2966C514.011 43.2966 528.673 49.8214 526.833 62.5848C525.105 74.589 536.055 79.089 532.977 93.679C529.632 109.501 508.268 111.636 520.478 126.688C527.882 135.831 521.437 150.652 515.393 160.016C511.524 166.002 493.438 170.865 497.709 168.697C507.466 163.779 444.667 194.752 444.667 194.752Z" fill="#369775"/>
<path d="M482.01 103.967C473.87 121.131 468.261 135.589 469.477 136.261C470.692 136.932 478.274 123.552 486.414 106.388C494.553 89.223 500.162 74.765 498.947 74.094C497.731 73.423 490.138 86.791 482.01 103.967Z" fill="white"/>
<path d="M432.224 237.862C432.224 237.862 510.008 179.282 520.779 159.455C531.55 139.627 536.813 133.312 536.813 133.312C536.813 133.312 524.247 124.509 515.215 133.389C506.183 142.268 498.122 122.386 481.586 149.772C481.586 149.772 479.088 169.346 468.127 164.879C456.765 160.247 432.224 237.862 432.224 237.862Z" fill="#50AA8A"/>
<path d="M421.564 247.489C421.564 247.489 480.404 197.558 501.589 176.784C517.311 161.38 536.813 133.312 536.813 133.312C536.813 133.312 548.242 145.184 542.243 156.418C536.601 166.948 545.287 175.431 537.516 187.886C529.108 201.354 508.525 194.939 514.825 213.82C518.638 225.274 507.666 236.596 498.913 242.956C493.338 247.027 474.885 244.442 479.579 244.056C490.383 243.275 421.564 247.489 421.564 247.489Z" fill="#50AA8A"/>
<path d="M499.727 189.427C486.971 202.806 477.427 214.525 478.363 215.592C479.3 216.659 490.417 206.668 503.173 193.278C515.929 179.887 525.473 168.18 524.537 167.113C523.6 166.046 512.483 176.047 499.727 189.427Z" fill="white"/>
<path d="M203.822 259.67H117.965V371.9H203.822V259.67Z" fill="#1B7BD1"/>
<path d="M391.146 260.77H305.289V373H391.146V260.77Z" fill="#E1E6FB"/>
<path d="M457.751 21H402V91.419H457.751V21Z" fill="#C9DAEC"/>
<path d="M468.083 58.3156H78.939V341.091H468.083V58.3156Z" fill="#BAC5F4"/>
<path d="M468.083 58.3156H88.974V341.091H468.083V58.3156Z" fill="#F8F8FF"/>
<path d="M463.623 62.7168H92.319V82.522H463.623V62.7168Z" fill="white"/>
<path d="M463.623 81.422H92.319V336.69H463.623V81.422Z" fill="#E1E6FB"/>
<path d="M199.362 91.325H153.646V141.938H199.362V91.325Z" fill="#BAC5F4"/>
<path d="M250.653 91.325H204.937V141.938H250.653V91.325Z" fill="#BAC5F4"/>
<path d="M300.829 91.325H255.113V141.938H300.829V91.325Z" fill="#BAC5F4"/>
<path d="M352.12 91.325H306.404V141.938H352.12V91.325Z" fill="white"/>
<path d="M402.296 91.325H356.58V141.938H402.296V91.325Z" fill="white"/>
<path d="M453.588 91.325H407.871V141.938H453.588V91.325Z" fill="white"/>
<path d="M199.362 149.64H153.646V200.254H199.362V149.64Z" fill="white"/>
<path d="M250.653 149.64H204.937V200.254H250.653V149.64Z" fill="white"/>
<path d="M300.829 149.64H255.113V200.254H300.829V149.64Z" fill="#F8F8FF"/>
<path d="M352.12 149.64H306.404V200.254H352.12V149.64Z" fill="white"/>
<path d="M402.296 149.64H356.58V200.254H402.296V149.64Z" fill="white"/>
<path d="M453.588 149.64H407.871V200.254H453.588V149.64Z" fill="white"/>
<path d="M199.362 205.755H153.646V256.369H199.362V205.755Z" fill="white"/>
<path d="M250.653 205.755H204.937V256.369H250.653V205.755Z" fill="white"/>
<path d="M300.829 205.755H255.113V256.369H300.829V205.755Z" fill="#F8F8FF"/>
<path d="M352.12 205.755H306.404V256.369H352.12V205.755Z" fill="white"/>
<path d="M402.296 205.755H356.58V256.369H402.296V205.755Z" fill="#F8F8FF"/>
<path d="M453.588 205.755H407.871V256.369H453.588V205.755Z" fill="white"/>
<path d="M200.477 262.971H154.761V313.584H200.477V262.971Z" fill="#F8F8FF"/>
<path d="M251.768 262.971H206.052V313.584H251.768V262.971Z" fill="#F8F8FF"/>
<path d="M301.944 262.971H256.228V313.584H301.944V262.971Z" fill="white"/>
<path d="M353.235 262.971H307.519V313.584H353.235V262.971Z" fill="white"/>
<path d="M403.411 262.971H357.695V313.584H403.411V262.971Z" fill="#BAC5F4"/>
<path d="M454.703 262.971H408.986V313.584H454.703V262.971Z" fill="white"/>
<path d="M102.912 77.021C105.067 77.021 106.815 75.297 106.815 73.17C106.815 71.043 105.067 69.319 102.912 69.319C100.757 69.319 99.009 71.043 99.009 73.17C99.009 75.297 100.757 77.021 102.912 77.021Z" fill="#BAC5F4"/>
<path d="M115.177 77.021C117.333 77.021 119.08 75.297 119.08 73.17C119.08 71.043 117.333 69.319 115.177 69.319C113.022 69.319 111.275 71.043 111.275 73.17C111.275 75.297 113.022 77.021 115.177 77.021Z" fill="#BAC5F4"/>
<path d="M127.442 77.021C129.598 77.021 131.345 75.297 131.345 73.17C131.345 71.043 129.598 69.319 127.442 69.319C125.287 69.319 123.54 71.043 123.54 73.17C123.54 75.297 125.287 77.021 127.442 77.021Z" fill="#BAC5F4"/>
<path d="M139.708 148.54H108.487C105.716 148.54 103.469 150.757 103.469 153.491C103.469 156.226 105.716 158.443 108.487 158.443H139.708C142.479 158.443 144.725 156.226 144.725 153.491C144.725 150.757 142.479 148.54 139.708 148.54Z" fill="white"/>
<path d="M139.708 205.755H108.487C105.716 205.755 103.469 207.972 103.469 210.707C103.469 213.441 105.716 215.658 108.487 215.658H139.708C142.479 215.658 144.725 213.441 144.725 210.707C144.725 207.972 142.479 205.755 139.708 205.755Z" fill="white"/>
<path d="M139.708 262.971H108.487C105.716 262.971 103.469 265.187 103.469 267.922C103.469 270.656 105.716 272.873 108.487 272.873H139.708C142.479 272.873 144.725 270.656 144.725 267.922C144.725 265.187 142.479 262.971 139.708 262.971Z" fill="white"/>
<path d="M179.849 152.941H162.008C159.853 152.941 158.106 154.665 158.106 156.792C158.106 158.919 159.853 160.643 162.008 160.643H179.849C182.004 160.643 183.751 158.919 183.751 156.792C183.751 154.665 182.004 152.941 179.849 152.941Z" fill="#BAC5F4"/>
<path d="M168.698 167.245H160.893C159.354 167.245 158.106 168.476 158.106 169.996C158.106 171.515 159.354 172.746 160.893 172.746H168.698C170.238 172.746 171.486 171.515 171.486 169.996C171.486 168.476 170.238 167.245 168.698 167.245Z" fill="#BAC5F4"/>
<path d="M231.697 152.941H213.857C212.01 152.941 210.512 154.419 210.512 156.242C210.512 158.065 212.01 159.543 213.857 159.543H231.697C233.545 159.543 235.042 158.065 235.042 156.242C235.042 154.419 233.545 152.941 231.697 152.941Z" fill="#BAC5F4"/>
<path d="M383.341 270.673H365.5C363.653 270.673 362.155 272.15 362.155 273.973C362.155 275.797 363.653 277.274 365.5 277.274H383.341C385.188 277.274 386.686 275.797 386.686 273.973C386.686 272.15 385.188 270.673 383.341 270.673Z" fill="white"/>
<path d="M433.517 211.257H415.677C413.829 211.257 412.332 212.735 412.332 214.558C412.332 216.381 413.829 217.858 415.677 217.858H433.517C435.364 217.858 436.862 216.381 436.862 214.558C436.862 212.735 435.364 211.257 433.517 211.257Z" fill="#F5F5FC"/>
<path d="M432.402 154.041H414.562C412.714 154.041 411.217 155.519 411.217 157.342C411.217 159.165 412.714 160.643 414.562 160.643H432.402C434.249 160.643 435.747 159.165 435.747 157.342C435.747 155.519 434.249 154.041 432.402 154.041Z" fill="#F5F5FC"/>
<path d="M382.226 154.041H364.385C362.538 154.041 361.04 155.519 361.04 157.342C361.04 159.165 362.538 160.643 364.385 160.643H382.226C384.073 160.643 385.571 159.165 385.571 157.342C385.571 155.519 384.073 154.041 382.226 154.041Z" fill="#F5F5FC"/>
<path d="M214.972 172.746C217.435 172.746 219.432 170.776 219.432 168.345C219.432 165.914 217.435 163.944 214.972 163.944C212.509 163.944 210.512 165.914 210.512 168.345C210.512 170.776 212.509 172.746 214.972 172.746Z" fill="#BAC5F4"/>
<path d="M316.439 165.044C318.903 165.044 320.899 163.074 320.899 160.643C320.899 158.212 318.903 156.242 316.439 156.242C313.976 156.242 311.979 158.212 311.979 160.643C311.979 163.074 313.976 165.044 316.439 165.044Z" fill="#BAC5F4"/>
<path d="M332.05 165.044C334.513 165.044 336.51 163.074 336.51 160.643C336.51 158.212 334.513 156.242 332.05 156.242C329.586 156.242 327.59 158.212 327.59 160.643C327.59 163.074 329.586 165.044 332.05 165.044Z" fill="#BAC5F4"/>
<path d="M332.05 220.059C334.513 220.059 336.51 218.089 336.51 215.658C336.51 213.227 334.513 211.257 332.05 211.257C329.586 211.257 327.59 213.227 327.59 215.658C327.59 218.089 329.586 220.059 332.05 220.059Z" fill="#BAC5F4"/>
<path d="M316.439 220.059C318.903 220.059 320.899 218.089 320.899 215.658C320.899 213.227 318.903 211.257 316.439 211.257C313.976 211.257 311.979 213.227 311.979 215.658C311.979 218.089 313.976 220.059 316.439 220.059Z" fill="#BAC5F4"/>
<path d="M330.935 276.174C333.398 276.174 335.395 274.204 335.395 271.773C335.395 269.342 333.398 267.372 330.935 267.372C328.471 267.372 326.475 269.342 326.475 271.773C326.475 274.204 328.471 276.174 330.935 276.174Z" fill="#BAC5F4"/>
<path d="M315.324 276.174C317.788 276.174 319.784 274.204 319.784 271.773C319.784 269.342 317.788 267.372 315.324 267.372C312.861 267.372 310.864 269.342 310.864 271.773C310.864 274.204 312.861 276.174 315.324 276.174Z" fill="#BAC5F4"/>
<path d="M179.291 277.274C181.754 277.274 183.751 275.304 183.751 272.873C183.751 270.442 181.754 268.472 179.291 268.472C176.828 268.472 174.831 270.442 174.831 272.873C174.831 275.304 176.828 277.274 179.291 277.274Z" fill="#BAC5F4"/>
<path d="M163.681 277.274C166.144 277.274 168.141 275.304 168.141 272.873C168.141 270.442 166.144 268.472 163.681 268.472C161.218 268.472 159.221 270.442 159.221 272.873C159.221 275.304 161.218 277.274 163.681 277.274Z" fill="#BAC5F4"/>
<path d="M316.439 105.628C318.903 105.628 320.899 103.658 320.899 101.227C320.899 98.796 318.903 96.826 316.439 96.826C313.976 96.826 311.979 98.796 311.979 101.227C311.979 103.658 313.976 105.628 316.439 105.628Z" fill="#BAC5F4"/>
<path d="M264.033 105.628C266.496 105.628 268.493 103.658 268.493 101.227C268.493 98.796 266.496 96.826 264.033 96.826C261.57 96.826 259.573 98.796 259.573 101.227C259.573 103.658 261.57 105.628 264.033 105.628Z" fill="white"/>
<path d="M279.643 105.628C282.107 105.628 284.104 103.658 284.104 101.227C284.104 98.796 282.107 96.826 279.643 96.826C277.18 96.826 275.183 98.796 275.183 101.227C275.183 103.658 277.18 105.628 279.643 105.628Z" fill="white"/>
<path d="M213.857 105.628C216.32 105.628 218.317 103.658 218.317 101.227C218.317 98.796 216.32 96.826 213.857 96.826C211.394 96.826 209.397 98.796 209.397 101.227C209.397 103.658 211.394 105.628 213.857 105.628Z" fill="white"/>
<path d="M229.467 105.628C231.931 105.628 233.927 103.658 233.927 101.227C233.927 98.796 231.931 96.826 229.467 96.826C227.004 96.826 225.007 98.796 225.007 101.227C225.007 103.658 227.004 105.628 229.467 105.628Z" fill="white"/>
<path d="M163.681 105.628C166.144 105.628 168.141 103.658 168.141 101.227C168.141 98.796 166.144 96.826 163.681 96.826C161.218 96.826 159.221 98.796 159.221 101.227C159.221 103.658 161.218 105.628 163.681 105.628Z" fill="white"/>
<path d="M179.291 105.628C181.754 105.628 183.751 103.658 183.751 101.227C183.751 98.796 181.754 96.826 179.291 96.826C176.828 96.826 174.831 98.796 174.831 101.227C174.831 103.658 176.828 105.628 179.291 105.628Z" fill="white"/>
<path d="M333.648 121.666V120.344L339.48 111.116H340.439V113.164H339.791L335.384 120.136V120.24H343.239V121.666H333.648ZM339.895 124.388V121.264V120.648V111.116H341.424V124.388H339.895Z" fill="#BAC5F4"/>
<path d="M234.721 124.388V123.221L239.102 118.426C239.616 117.864 240.04 117.376 240.372 116.961C240.705 116.542 240.951 116.149 241.111 115.782C241.275 115.41 241.357 115.021 241.357 114.615C241.357 114.149 241.245 113.745 241.02 113.403C240.8 113.062 240.498 112.799 240.113 112.613C239.729 112.427 239.297 112.334 238.817 112.334C238.307 112.334 237.862 112.44 237.482 112.652C237.106 112.859 236.815 113.151 236.607 113.527C236.404 113.902 236.303 114.343 236.303 114.849H234.773C234.773 114.071 234.953 113.388 235.311 112.801C235.67 112.213 236.158 111.755 236.776 111.427C237.398 111.099 238.096 110.934 238.869 110.934C239.647 110.934 240.336 111.099 240.936 111.427C241.537 111.755 242.008 112.198 242.349 112.755C242.69 113.313 242.861 113.933 242.861 114.615C242.861 115.103 242.772 115.581 242.595 116.047C242.422 116.51 242.12 117.026 241.688 117.596C241.26 118.162 240.666 118.853 239.906 119.67L236.925 122.858V122.962H243.094V124.388H234.721Z" fill="white"/>
<path d="M183.109 181.383L189.045 169.64V169.537H182.202V168.111H190.704V169.615L184.794 181.383H183.109Z" fill="#BAC5F4"/>
<path d="M328.957 168.177V181.449H327.35V169.862H327.272L324.032 172.014V170.38L327.35 168.177H328.957ZM337.103 181.63C336.127 181.63 335.295 181.365 334.608 180.833C333.921 180.298 333.396 179.522 333.033 178.507C332.671 177.487 332.489 176.256 332.489 174.813C332.489 173.379 332.671 172.154 333.033 171.139C333.401 170.119 333.928 169.341 334.615 168.806C335.306 168.266 336.135 167.996 337.103 167.996C338.071 167.996 338.898 168.266 339.585 168.806C340.276 169.341 340.803 170.119 341.166 171.139C341.533 172.154 341.717 173.379 341.717 174.813C341.717 176.256 341.536 177.487 341.173 178.507C340.81 179.522 340.285 180.298 339.598 180.833C338.911 181.365 338.079 181.63 337.103 181.63ZM337.103 180.205C338.071 180.205 338.823 179.738 339.358 178.805C339.894 177.872 340.162 176.541 340.162 174.813C340.162 173.664 340.039 172.685 339.792 171.877C339.55 171.07 339.201 170.454 338.743 170.031C338.289 169.607 337.742 169.395 337.103 169.395C336.144 169.395 335.394 169.869 334.854 170.815C334.314 171.756 334.044 173.089 334.044 174.813C334.044 175.962 334.165 176.939 334.407 177.742C334.649 178.546 334.997 179.157 335.451 179.576C335.909 179.995 336.459 180.205 337.103 180.205Z" fill="#BAC5F4"/>
<path d="M281.736 225.139V238.411H280.129V226.824H280.051L276.811 228.976V227.343L280.129 225.139H281.736ZM289.7 238.593C288.94 238.593 288.255 238.441 287.646 238.139C287.037 237.837 286.549 237.422 286.181 236.895C285.814 236.368 285.613 235.767 285.579 235.093H287.134C287.195 235.694 287.467 236.191 287.951 236.584C288.439 236.973 289.022 237.167 289.7 237.167C290.245 237.167 290.728 237.039 291.152 236.785C291.58 236.53 291.914 236.18 292.156 235.735C292.403 235.285 292.526 234.778 292.526 234.212C292.526 233.633 292.398 233.117 292.143 232.663C291.893 232.205 291.547 231.844 291.106 231.581C290.666 231.317 290.163 231.183 289.597 231.179C289.19 231.175 288.774 231.237 288.346 231.367C287.918 231.492 287.566 231.654 287.29 231.853L285.786 231.672L286.59 225.139H293.485V226.565H287.938L287.471 230.479H287.549C287.821 230.263 288.162 230.084 288.573 229.941C288.983 229.799 289.411 229.728 289.856 229.728C290.668 229.728 291.392 229.922 292.027 230.311C292.666 230.695 293.167 231.222 293.53 231.892C293.897 232.562 294.081 233.326 294.081 234.186C294.081 235.033 293.891 235.789 293.511 236.454C293.135 237.115 292.616 237.638 291.955 238.022C291.294 238.402 290.543 238.593 289.7 238.593Z" fill="#BAC5F4"/>
<path d="M432.264 227.34V240.612H430.657V229.025H430.58L427.339 231.176V229.543L430.657 227.34H432.264ZM440.332 240.793C439.442 240.793 438.656 240.635 437.974 240.32C437.295 240 436.766 239.562 436.386 239.005C436.006 238.443 435.818 237.804 435.822 237.086C435.818 236.525 435.928 236.006 436.153 235.531C436.377 235.052 436.684 234.652 437.073 234.332C437.466 234.008 437.904 233.803 438.388 233.717V233.639C437.753 233.475 437.248 233.118 436.872 232.57C436.496 232.017 436.31 231.388 436.315 230.684C436.31 230.01 436.481 229.407 436.827 228.876C437.172 228.344 437.647 227.925 438.252 227.619C438.861 227.312 439.555 227.159 440.332 227.159C441.101 227.159 441.788 227.312 442.393 227.619C442.998 227.925 443.473 228.344 443.819 228.876C444.169 229.407 444.346 230.01 444.35 230.684C444.346 231.388 444.154 232.017 443.773 232.57C443.398 233.118 442.899 233.475 442.277 233.639V233.717C442.756 233.803 443.188 234.008 443.573 234.332C443.957 234.652 444.264 235.052 444.493 235.531C444.722 236.006 444.838 236.525 444.843 237.086C444.838 237.804 444.644 238.443 444.259 239.005C443.879 239.562 443.35 240 442.672 240.32C441.998 240.635 441.218 240.793 440.332 240.793ZM440.332 239.367C440.933 239.367 441.451 239.27 441.888 239.076C442.324 238.881 442.661 238.607 442.899 238.253C443.136 237.899 443.257 237.484 443.262 237.009C443.257 236.507 443.128 236.065 442.873 235.68C442.618 235.296 442.27 234.993 441.829 234.773C441.393 234.553 440.894 234.442 440.332 234.442C439.766 234.442 439.261 234.553 438.816 234.773C438.375 234.993 438.028 235.296 437.773 235.68C437.522 236.065 437.399 236.507 437.403 237.009C437.399 237.484 437.513 237.899 437.747 238.253C437.984 238.607 438.324 238.881 438.764 239.076C439.205 239.27 439.728 239.367 440.332 239.367ZM440.332 233.069C440.808 233.069 441.229 232.974 441.596 232.783C441.968 232.593 442.259 232.328 442.471 231.986C442.683 231.645 442.791 231.245 442.795 230.788C442.791 230.338 442.685 229.947 442.477 229.615C442.27 229.278 441.983 229.018 441.616 228.837C441.248 228.651 440.821 228.558 440.332 228.558C439.836 228.558 439.401 228.651 439.03 228.837C438.658 229.018 438.371 229.278 438.168 229.615C437.965 229.947 437.866 230.338 437.87 230.788C437.866 231.245 437.967 231.645 438.174 231.986C438.386 232.328 438.678 232.593 439.049 232.783C439.421 232.974 439.849 233.069 440.332 233.069Z" fill="#BAC5F4"/>
<path d="M218.81 292.755V291.588L223.191 286.793C223.705 286.231 224.128 285.743 224.461 285.328C224.794 284.909 225.04 284.516 225.2 284.149C225.364 283.777 225.446 283.388 225.446 282.982C225.446 282.516 225.334 282.112 225.109 281.771C224.889 281.429 224.586 281.166 224.202 280.98C223.817 280.794 223.385 280.701 222.906 280.701C222.396 280.701 221.951 280.807 221.571 281.019C221.195 281.226 220.903 281.518 220.696 281.894C220.493 282.27 220.391 282.71 220.391 283.216H218.862C218.862 282.438 219.041 281.755 219.4 281.168C219.758 280.58 220.247 280.122 220.864 279.794C221.486 279.466 222.184 279.302 222.957 279.302C223.735 279.302 224.424 279.466 225.025 279.794C225.625 280.122 226.096 280.565 226.437 281.123C226.779 281.68 226.949 282.3 226.949 282.982C226.949 283.471 226.861 283.948 226.684 284.415C226.511 284.877 226.208 285.393 225.776 285.963C225.349 286.529 224.755 287.221 223.994 288.037L221.013 291.225V291.329H227.183V292.755H218.81ZM239.32 292.936C238.344 292.936 237.512 292.67 236.825 292.139C236.138 291.603 235.614 290.828 235.251 289.813C234.888 288.793 234.706 287.562 234.706 286.119C234.706 284.685 234.888 283.46 235.251 282.445C235.618 281.425 236.145 280.647 236.832 280.112C237.523 279.572 238.353 279.302 239.32 279.302C240.288 279.302 241.115 279.572 241.802 280.112C242.493 280.647 243.021 281.425 243.383 282.445C243.751 283.46 243.934 284.685 243.934 286.119C243.934 287.562 243.753 288.793 243.39 289.813C243.027 290.828 242.502 291.603 241.815 292.139C241.128 292.67 240.297 292.936 239.32 292.936ZM239.32 291.51C240.288 291.51 241.04 291.044 241.575 290.111C242.111 289.178 242.379 287.847 242.379 286.119C242.379 284.97 242.256 283.991 242.01 283.183C241.768 282.375 241.418 281.76 240.96 281.336C240.506 280.913 239.96 280.701 239.32 280.701C238.361 280.701 237.612 281.174 237.072 282.121C236.532 283.062 236.262 284.395 236.262 286.119C236.262 287.268 236.382 288.244 236.624 289.048C236.866 289.852 237.214 290.463 237.668 290.882C238.126 291.301 238.677 291.51 239.32 291.51Z" fill="#BAC5F4"/>
<mask id="mask1_21_2" style="mask-type:luminance" maskUnits="userSpaceOnUse" x="107" y="77" width="133" height="300">
<path d="M240 77H107V376.75H240V77Z" fill="white"/>
</mask>
<g mask="url(#mask1_21_2)">
<path d="M166.546 351.996L164.926 351.951L156.51 352.041C156.51 352.041 154.664 360.682 153.674 364.283C153.629 364.508 153.404 365.093 153.314 365.543C153.179 366.173 153.134 366.803 153.134 367.433C153.314 370.719 154.529 373.465 157.455 374.95C160.65 376.57 163.126 378.055 166.546 374.95C169.967 371.844 170.417 369.864 169.112 364.463C167.807 359.062 167.356 352.176 166.546 351.996Z" fill="#4B49BB"/>
<path d="M201.787 362.753C195.981 360.907 192.111 353.031 192.111 353.031L182.209 352.446C182.209 352.446 181.669 360.457 181.399 364.508C181.039 369.909 181.939 372.294 185.495 372.024C190.175 371.664 209.213 373.374 212.229 371.439C216.145 368.919 207.188 364.463 201.787 362.753Z" fill="#4B49BB"/>
<path d="M142.332 209.772V221.609L156.645 352.131H166.771C166.771 352.131 170.282 262.611 170.282 259.505C170.282 256.4 171.182 246.678 171.182 246.678C171.182 246.678 183.919 283.449 184.144 286.51C184.369 289.57 182.074 352.896 182.074 352.896L192.201 353.301C192.201 353.301 201.067 310.454 201.067 306.403C201.067 302.353 204.083 281.289 203.633 277.238C203.182 273.188 195.666 210.087 195.666 210.087L180.139 209.682L142.332 209.772Z" fill="url(#paint0_linear_21_2)"/>
<path d="M207.998 196.045L207.863 195.865C207.908 196 207.953 196.09 207.998 196.045ZM178.248 184.568L172.577 186.908L172.262 194.74L178.518 197.215C178.518 197.17 185.359 196.945 185.359 196.9C185.404 196.585 188.06 196.675 189.275 197.44L210.474 190.149L211.239 185.063C211.239 185.063 212.814 191.454 205.703 178.582L178.248 184.568ZM203.588 158.734L203.137 156.168L202.057 155.988L203.588 158.734ZM164.386 90.547C161.776 91.627 160.515 95.453 160.515 95.453C160.515 95.453 159.255 94.688 159.255 96.848C159.255 99.009 160.335 103.869 161.1 105.13C162.451 107.245 163.666 109.405 164.746 111.656C165.781 113.906 165.421 118.497 164.341 119.172C163.261 119.847 143.998 137.13 143.998 137.13L128.11 185.918V187.853L130.54 188.709L133.061 190.869C133.286 190.914 136.481 192.669 136.931 192.984C139.452 194.245 142.152 195.19 144.898 195.82C146.698 196.18 154.664 196 154.664 196L162.721 195.82L161.325 185.558L149.398 185.423L133.106 184.613L149.624 146.627L201.742 155.943C192.471 139.2 182.074 120.387 181.174 118.407C180.409 116.787 181.219 112.916 181.669 110.891C182.074 109.045 182.974 106.795 183.829 106.12C184.684 105.445 186.215 102.474 186.215 101.169C186.215 99.864 186.575 94.778 185.494 95.858C185.179 96.173 183.919 94.238 183.469 92.303C182.749 89.512 180.814 87.532 178.563 85.731C178.563 85.731 167.086 89.512 164.521 90.592" fill="url(#paint1_linear_21_2)"/>
<path d="M144.448 126.643C141.927 128.354 139.587 130.649 138.732 133.619C137.877 136.59 131.801 159.724 130.99 162.649C129.01 169.806 127.84 171.876 125.499 180.292C122.619 190.644 129.235 192.219 135.986 193.749C143.007 195.325 143.052 196 144.718 196C144.988 196 153.314 197.71 153.584 192.984C153.764 190.014 153.224 185.288 152.099 185.423C149.534 185.783 141.252 183.578 140.847 183.308C140.307 182.948 142.647 176.467 143.998 172.461C144.988 169.49 148.813 157.158 149.669 154.863C150.119 153.603 147.508 166.835 145.933 179.797C145.888 180.292 145.258 185.333 145.438 185.333C147.328 185.333 152.504 185.423 154.124 185.603C161.415 186.458 162.811 189.924 162.361 192.714C161.551 197.575 143.818 195.325 143.908 195.955C143.908 195.955 140.847 209.727 142.557 210.582C144.043 211.347 163.936 219.629 168.167 221.249C168.617 221.429 169.157 221.204 169.337 220.709C169.337 220.709 169.337 220.709 169.337 220.664L172.037 212.923C172.082 212.833 172.172 212.788 172.262 212.833C172.307 212.833 172.352 212.878 172.352 212.923L174.918 221.384C174.963 221.609 175.143 221.789 175.323 221.879H176.448L198.547 217.108C198.547 217.108 198.457 208.377 198.412 197.215C198.412 196.09 198.232 191.949 197.421 192.714C196.611 193.479 178.158 195.91 176.133 195.055C171.857 193.254 172.982 188.799 174.468 186.953C176.178 184.838 197.962 183.803 198.052 182.228C198.412 175.386 197.872 157.428 197.512 159.589C196.971 162.964 184.234 181.417 184.234 184.613C184.234 187.809 184.009 195.91 184.009 195.91L204.938 194.29C204.938 194.29 211.959 191.859 212.589 187.809C213.219 183.758 212.454 181.958 212.184 175.927C212.004 172.101 206.603 149.102 205.073 142.576C204.848 141.586 204.713 140.596 204.623 139.605C204.443 136.905 203.362 130.604 197.557 127.859C190.355 124.438 184.729 121.737 183.289 121.737C181.939 121.737 178.248 129.839 176.313 132.134C175.458 133.169 175.638 133.664 174.513 135.195C173.928 136.005 172.847 136.14 172.037 135.6C171.857 135.465 171.722 135.285 171.587 135.105C170.957 134.205 170.417 133.214 169.922 132.224C169.067 130.514 162.451 120.747 162.451 120.747C162.451 120.747 146.968 124.888 144.448 126.643Z" fill="url(#paint2_linear_21_2)"/>
<path d="M178.518 85.776C178.518 85.776 164.386 91.042 163.396 91.807C162.406 92.573 160.515 95.453 160.515 95.453C160.515 95.453 159.525 94.913 159.3 96.398C159.3 96.398 157.86 93.428 157.68 91.762C157.5 90.097 157.68 85.821 160.38 82.986C163.081 80.15 168.527 76.415 171.902 76.91C175.278 77.405 176.718 77.81 178.833 79.925C180.949 82.041 182.749 82.671 183.379 82.986C184.009 83.301 186.44 85.056 186.845 88.342C187.25 91.627 186.125 98.199 186.125 98.199C186.125 98.199 186.44 95.633 185.404 96.443C184.684 96.983 183.649 94.643 183.334 93.248C182.929 91.897 179.283 86.136 178.518 85.776Z" fill="url(#paint3_linear_21_2)"/>
<g opacity="0.07">
<path d="M183.244 121.782C183.154 121.512 184.774 122.728 182.884 121.377C180.229 119.442 181.489 111.521 181.489 111.521C180.499 113.591 178.788 115.211 176.673 116.022C173.297 117.282 172.262 116.337 177.483 119.352C182.614 122.323 179.959 123.358 179.599 127.273" fill="white"/>
</g>
<g opacity="0.07">
<path d="M193.596 149.777L200.617 176.377C200.617 176.377 200.572 181.102 199.177 181.822C197.782 182.543 193.371 182.993 192.336 183.443C191.3 183.893 180.544 186.143 183.334 182.363C183.964 181.507 198.547 176.422 192.021 171.066C185.494 165.71 186.665 158.284 189.815 153.153C192.966 148.022 192.291 143.656 192.291 143.656L193.596 149.777Z" fill="black"/>
</g>
<g opacity="0.07">
<path d="M163.846 219.899C163.846 219.899 157.77 252.124 160.92 264.996C165.691 284.53 158.805 310.949 158.805 323.641C158.805 331.878 162.046 354.651 162.271 363.923C162.316 366.713 164.341 372.114 162.856 373.374C162.226 373.915 158.355 372.654 156.24 371.664C155.114 371.124 154.484 369.954 154.619 368.784L155.88 363.293L157.68 356.002L145.078 238.082C145.078 238.082 141.027 211.843 143.322 211.753C145.618 211.662 163.891 219.899 163.846 219.899Z" fill="black"/>
</g>
<path d="M158.085 176.557L181.894 179.527C182.389 179.662 182.704 180.112 182.659 180.652L181.984 202.166C181.939 202.841 181.534 203.741 180.904 203.561L157.23 199.015C156.78 198.88 156.465 198.475 156.465 197.98L156.375 195.64L158.985 194.965C159.66 194.785 160.29 194.425 160.83 194.02C160.965 193.93 161.055 193.84 161.145 193.704L161.686 192.894C161.866 192.669 161.911 192.354 161.866 192.039C161.776 191.544 161.641 190.869 161.551 190.509C161.505 190.374 161.46 190.239 161.415 190.149L160.83 188.889C160.56 188.304 160.11 187.854 159.525 187.583L159.165 187.403L156.6 186.008L156.825 177.592C156.825 177.007 157.32 176.557 157.905 176.557C157.995 176.557 158.04 176.557 158.085 176.557Z" fill="white"/>
</g>
<path d="M461.204 363.509C458.834 359.572 456.946 358.527 451.08 358.367C445.215 358.206 437.421 358.286 437.421 358.286L437.341 366.603C437.341 366.603 443.809 370.339 447.264 372.187C447.465 372.307 448.027 372.629 448.429 372.87C449.031 373.151 449.674 373.392 450.317 373.553C453.732 374.276 456.825 373.914 459.035 371.705C461.485 369.254 463.575 367.446 461.204 363.509Z" fill="#4B49BB"/>
<path d="M416.972 356.117C416.772 356.278 416.249 356.68 415.888 356.961C415.406 357.403 414.964 357.925 414.562 358.447C412.634 361.34 411.79 364.353 413.035 367.245C414.401 370.419 415.325 373.071 419.825 372.307C424.324 371.544 426.052 370.178 428.382 364.835C430.712 359.492 433.564 352.18 433.524 352.18L425.851 349.006C425.851 349.006 419.985 353.626 416.972 356.117Z" fill="#4B49BB"/>
<path d="M437.943 358.648C437.943 358.648 438.064 367.044 436.698 367.245C435.332 367.446 416.49 364.714 408.978 364.313C401.465 363.911 384.431 359.05 376.075 349.609C368.844 341.453 369.969 332.414 375.312 332.414C380.655 332.414 385.556 327.875 399.135 334.343C412.714 340.811 427.096 341.895 435.171 341.253C443.246 340.61 465.864 336.432 467.632 335.146C469.4 333.861 477.877 330.165 489.688 331.45C501.499 332.736 495.915 342.096 493.424 345.712C489.929 350.734 481.653 356.117 474.743 356.358C467.833 356.599 437.943 358.648 437.943 358.648Z" fill="url(#paint4_linear_21_2)"/>
<path d="M423.963 211.811C419.985 213.258 414.924 232.943 414.924 232.943L414.843 232.863L414.281 235.594L413.598 239.17L414.924 260.543L427.779 266.97L457.307 274.925L465.463 286.535C465.463 286.535 483.742 305.136 483.862 306.422C483.983 307.707 464.217 314.256 462.329 314.537C457.789 315.22 491.375 306.984 480.608 293.927C476.029 288.343 469.319 271.55 456.022 260.422C448.308 253.994 450.478 235.715 447.746 224.145C444.331 209.682 442.242 205.343 438.827 205.343C435.734 205.343 431.435 209.039 423.963 211.811Z" fill="url(#paint5_linear_21_2)"/>
<path d="M465.744 258.534C459.557 252.869 457.468 251.503 452.045 253.432C446.621 255.36 443.969 257.128 436.577 258.333C432.038 259.136 427.337 258.534 423.119 256.686L407.893 258.212C405.965 257.971 384.311 298.628 383.788 307.064C383.467 312.247 395.238 320.241 398.532 321.045C399.858 321.366 402.228 308.591 402.992 307.426L398.05 305.899C398.934 303.69 401.907 298.226 403.876 295.293C404.478 294.369 409.179 286.616 409.821 283.643C409.942 283.924 410.625 289.548 411.268 291.356C412.473 294.691 414.12 296.579 414.12 299.23C414.12 301.882 413.799 312.407 411.87 317.148C409.942 321.889 407.13 332.856 407.13 332.856L455.821 332.575C455.821 332.575 454.053 311.644 454.776 304.453C454.776 304.453 454.013 301.56 455.459 297.382C457.83 290.472 458.513 280.188 458.111 278.581C457.508 276.05 472.413 297.463 475.667 302.886C477.033 305.136 458.513 309.113 456.986 310.841C455.379 312.649 458.553 317.55 458.553 317.55C458.553 317.55 490.853 313.613 490.692 308.671C490.531 303.73 472.935 265.082 465.744 258.534Z" fill="url(#paint6_linear_21_2)"/>
<path d="M427.86 200.241C427.86 200.241 418.82 200.603 416.209 210.084C413.598 219.565 413.236 232.782 413.156 234.831C413.075 237 414.08 249.696 409.219 254.999C405.041 259.578 406.728 263.998 405.683 267.653L405.201 273.72C405.282 274.443 405.804 275.045 406.487 275.286C407.13 275.487 409.379 274.443 409.781 274.282C415.406 272.032 415.406 270.225 417.535 268.417C419.303 266.93 424.164 263.475 425.61 262.109C427.056 260.743 428.06 259.538 428.141 257.811C428.422 249.013 426.895 240.897 424.967 236.599C423.039 232.3 419.343 225.029 422.436 220.208C425.53 215.387 431.114 210.566 431.435 209.361C431.757 208.155 431.917 214.021 435.332 216.07C438.747 218.119 441.599 220.971 442.644 223.743C443.528 226.073 444.693 230.05 441.479 236.92C438.265 243.79 435.653 252.628 440.193 259.177C444.733 265.725 454.294 272.796 455.861 276.09C457.629 279.746 455.941 288.343 455.62 293.526C455.299 298.708 465.744 284.527 465.423 277.777C465.101 271.028 466.226 268.135 459.758 257.771C453.29 247.406 449.072 229.649 448.911 225.35C448.75 221.051 446.822 209.12 442.925 205.705C439.55 202.812 438.827 200 431.917 200C430.551 200 429.185 200.08 427.86 200.241Z" fill="url(#paint7_linear_21_2)"/>
<path opacity="0.07" d="M407.25 343.904L452.888 344.145C452.888 344.145 447.545 348.323 444.974 348.805C442.403 349.287 431.395 354.751 427.297 352.662C424.405 351.095 407.25 343.904 407.25 343.904Z" fill="black"/>
<path opacity="0.07" d="M432.681 241.42C432.681 241.42 436.939 242.504 438.707 240.014C442.684 234.389 439.068 242.866 439.068 242.866C439.068 242.866 437.903 246.16 437.984 247.807C438.064 249.454 433.404 241.661 432.681 241.42Z" fill="black"/>
<path opacity="0.07" d="M415.647 270.345C415.124 270.988 414.361 271.51 413.959 273.157C413.276 275.809 412.553 278.782 410.705 281.514C409.621 283.12 410.223 289.347 412.031 293.285C412.553 294.409 414.16 297.342 414.12 298.025L414 303.73H418.901C418.901 303.73 423.079 304.172 422.195 300.717C421.432 297.664 417.455 286.294 420.146 283.803C425.208 279.183 418.82 269.943 421.191 266.97C423.24 264.399 426.172 262.551 426.172 261.708C426.172 261.386 425.409 262.431 424.887 262.792C423.882 263.515 423.36 264.078 422.516 264.64C421.592 265.243 420.186 266.247 419.262 266.93C417.937 267.935 416.731 269.06 415.647 270.345Z" fill="black"/>
<path d="M396.564 306.944C396.564 306.944 396.524 303.971 399.456 303.85C402.389 303.73 464.499 303.81 464.499 303.81C464.499 303.81 467.23 304.132 467.311 306.341C467.391 308.551 467.391 341.373 467.391 341.373C467.391 341.373 467.431 343.904 464.74 343.984C462.048 344.065 398.733 344.065 398.733 344.065C398.733 344.065 396.363 343.462 396.403 341.092C396.443 338.722 396.564 306.944 396.564 306.944Z" fill="white"/>
<path d="M432.158 326.629C433.645 326.629 434.85 325.424 434.85 323.937C434.85 322.451 433.645 321.246 432.158 321.246C430.672 321.246 429.467 322.451 429.467 323.937C429.467 325.424 430.672 326.629 432.158 326.629Z" fill="#77C7E8"/>
</g>
<defs>
<linearGradient id="paint0_linear_21_2" x1="142.323" y1="281.561" x2="203.636" y2="281.561" gradientUnits="userSpaceOnUse">
<stop stop-color="#4B45BD"/>
<stop offset="1" stop-color="#58CAEA"/>
</linearGradient>
<linearGradient id="paint1_linear_21_2" x1="128.128" y1="141.602" x2="211.385" y2="141.602" gradientUnits="userSpaceOnUse">
<stop stop-color="#F87B58"/>
<stop offset="0.41" stop-color="#F89453"/>
<stop offset="0.71" stop-color="#F8C548"/>
<stop offset="1" stop-color="#F89C51"/>
</linearGradient>
<linearGradient id="paint2_linear_21_2" x1="124.798" y1="171.367" x2="212.827" y2="171.367" gradientUnits="userSpaceOnUse">
<stop stop-color="#4B45BD"/>
<stop offset="1" stop-color="#58CAEA"/>
</linearGradient>
<linearGradient id="paint3_linear_21_2" x1="157.602" y1="87.537" x2="186.9" y2="87.537" gradientUnits="userSpaceOnUse">
<stop stop-color="#4B45BD"/>
<stop offset="1" stop-color="#58CAEA"/>
</linearGradient>
<linearGradient id="paint4_linear_21_2" x1="496.941" y1="349.061" x2="370.977" y2="349.061" gradientUnits="userSpaceOnUse">
<stop stop-color="#4B45BD"/>
<stop offset="1" stop-color="#58CAEA"/>
</linearGradient>
<linearGradient id="paint5_linear_21_2" x1="413.598" y1="259.96" x2="483.863" y2="259.96" gradientUnits="userSpaceOnUse">
<stop stop-color="#F87B58"/>
<stop offset="0.5" stop-color="#F8C548"/>
<stop offset="1" stop-color="#F89C51"/>
</linearGradient>
<linearGradient id="paint6_linear_21_2" x1="383.782" y1="292.732" x2="490.693" y2="292.732" gradientUnits="userSpaceOnUse">
<stop stop-color="#4B45BD"/>
<stop offset="1" stop-color="#58CAEA"/>
</linearGradient>
<linearGradient id="paint7_linear_21_2" x1="405.201" y1="247.321" x2="465.43" y2="247.321" gradientUnits="userSpaceOnUse">
<stop stop-color="#4B45BD"/>
<stop offset="1" stop-color="#58CAEA"/>
</linearGradient>
</defs>
</svg>
