<svg width="36" height="28" viewBox="0 0 36 28" fill="none" xmlns="http://www.w3.org/2000/svg">
<path d="M15.9606 27.2539C15.4783 27.7316 14.8244 28 14.1425 28C13.4607 28 12.8067 27.7316 12.3245 27.2539L0.752892 15.7863C0.270813 15.3084 0 14.6603 0 13.9846C0 13.3089 0.270813 12.6608 0.752892 12.1829L12.3245 0.715353C12.8095 0.25115 13.459 -0.00570869 14.1333 9.72748e-05C14.8075 0.00590324 15.4525 0.273911 15.9292 0.746395C16.406 1.21888 16.6764 1.85804 16.6823 2.52621C16.6882 3.19438 16.429 3.83809 15.9606 4.31872L8.99959 11.4363L33.4285 11.4363C34.1105 11.4363 34.7646 11.7048 35.2468 12.1827C35.7291 12.6606 36 13.3088 36 13.9846C36 14.6605 35.7291 15.3087 35.2468 15.7866C34.7646 16.2645 34.1105 16.533 33.4285 16.533L8.99959 16.533L15.9606 23.6505C16.4426 24.1284 16.7134 24.7765 16.7134 25.4522C16.7134 26.1279 16.4426 26.776 15.9606 27.2539Z" fill="black"/>
</svg>
