<svg width="40" height="40" viewBox="0 0 40 40" fill="none" xmlns="http://www.w3.org/2000/svg">
<path d="M33.3333 6.66663H6.66665C4.83331 6.66663 3.34998 8.16663 3.34998 9.99996L3.33331 30C3.33331 31.8333 4.83331 33.3333 6.66665 33.3333H33.3333C35.1666 33.3333 36.6666 31.8333 36.6666 30V9.99996C36.6666 8.16663 35.1666 6.66663 33.3333 6.66663ZM32.6666 13.75L20.8833 21.1166C20.35 21.45 19.65 21.45 19.1166 21.1166L7.33331 13.75C7.16619 13.6561 7.01984 13.5294 6.90313 13.3774C6.78641 13.2254 6.70175 13.0513 6.65427 12.8656C6.60679 12.6799 6.59748 12.4865 6.62691 12.2971C6.65633 12.1078 6.72387 11.9263 6.82545 11.7638C6.92702 11.6013 7.06052 11.4611 7.21786 11.3516C7.37519 11.2422 7.5531 11.1658 7.74081 11.1271C7.92851 11.0884 8.12212 11.0882 8.3099 11.1265C8.49769 11.1648 8.67575 11.2408 8.83331 11.35L20 18.3333L31.1666 11.35C31.3242 11.2408 31.5023 11.1648 31.6901 11.1265C31.8778 11.0882 32.0714 11.0884 32.2592 11.1271C32.4469 11.1658 32.6248 11.2422 32.7821 11.3516C32.9394 11.4611 33.0729 11.6013 33.1745 11.7638C33.2761 11.9263 33.3436 12.1078 33.3731 12.2971C33.4025 12.4865 33.3932 12.6799 33.3457 12.8656C33.2982 13.0513 33.2136 13.2254 33.0968 13.3774C32.9801 13.5294 32.8338 13.6561 32.6666 13.75Z" fill="#1878D5"/>
</svg>
